<?xml version="1.0" encoding="UTF-8" standalone="no"?>
<svg
   version="1.1"
   id="Layer_1"
   x="0px"
   y="0px"
   width="2933929.2"
   viewBox="0 0 2933929.2 878300.19"
   enable-background="new 0 0 2564 913"
   xml:space="preserve"
   sodipodi:docname="logo.svg"
   inkscape:export-filename="logo1.svg"
   inkscape:export-xdpi="96"
   inkscape:export-ydpi="96"
   height="878300.19"
   xmlns:inkscape="http://www.inkscape.org/namespaces/inkscape"
   xmlns:sodipodi="http://sodipodi.sourceforge.net/DTD/sodipodi-0.dtd"
   xmlns="http://www.w3.org/2000/svg"
   xmlns:svg="http://www.w3.org/2000/svg"><defs
   id="defs27" /><sodipodi:namedview
   id="namedview27"
   pagecolor="#ffffff"
   bordercolor="#000000"
   borderopacity="0.25"
   inkscape:showpageshadow="2"
   inkscape:pageopacity="0.0"
   inkscape:pagecheckerboard="0"
   inkscape:deskcolor="#d1d1d1"
   inkscape:export-bgcolor="#ffffff00" />


<path
   fill="#048ec2"
   opacity="1"
   stroke="none"
   d="m -3640962.2,43770.186 c 5.4,0.702 10.3,1.654 15.2,2.062 19.1,1.572 37.8,5.736 56.2,11.123 18.6,5.473 36.7,12.842 53.7,22.654 9.1,5.253 18.3,10.642 26.6,17.077 10.2,7.854 19.7,7.266 29.8,0.318 23.5,-16.237 48.8,-28.935 75.7,-37.228 16.5,-5.068 33.6,-8.223 50.5,-11.731 21.4,-4.453 43.2,-3.908 64.8,-2.946 15.1,0.672 30.2,3.708 45.2,6.052 21.6,3.367 42.7,9.165 63.2,16.938 21.7,8.24 41.5,20.481 60.1,34.774 18.9,14.462 36.5,30.5 52.1,48.794 12.7,15.031 24.4,31.105 36.3,46.955 6.4,8.636 11.6,18.015 14.3,28.952 4.7,19.239 -0.2,35.778 -12.1,50.287 -8.5,10.448 -18.3,19.329 -31.4,23.101 -17.5,5.05 -33,1.145 -47.3,-10.573 -10.9,-8.899 -18.2,-20.83 -26.2,-32.122 -9,-12.556 -19.3,-23.644 -30.4,-34.137 -17.5,-16.573 -37.2,-29.646 -57.9,-40.973 -7.8,-4.216 -16.9,-5.797 -25.7,-7.516 -10.2,-2.027 -20.7,-3.571 -31.1,-4.11 -13.8,-0.714 -27.7,-0.37 -41.6,-0.243 -6.4,0.06 -12.8,0.757 -19.2,1.022 -14.8,0.605 -28.6,4.811 -42,10.873 -23.8,10.737 -44,27.32 -64.4,43.475 -9.9,7.782 -18.9,16.647 -31.2,20.74 -15.9,5.285 -30.7,2.602 -43.9,-6.602 -12.5,-8.688 -24,-19.082 -35.8,-28.927 -19,-15.945 -39.8,-28.365 -63.4,-35.351 -15.9,-4.725 -32,-8.236 -48.7,-8.454 -10.2,-0.134 -20.6,-1.532 -30.8,-0.814 -20.5,1.446 -40.6,5.819 -59.8,13.799 -19.1,7.909 -36.9,18.294 -52.6,32.232 -9.3,8.303 -18.8,16.699 -26.8,26.388 -9.4,11.523 -18.4,23.832 -25.6,36.991 -7.5,13.542 -13.4,28.207 -18.4,42.948 -5.7,16.451 -9,33.716 -9.9,51.302 -0.6,12.554 -1.6,25.194 -0.9,37.694 1.3,20.95 5.4,41.442 12.5,61.143 5.9,16.055 12.3,31.846 22.3,45.577 6,8.204 12.5,15.983 18.8,23.943 0.4,0.537 1,0.996 1.4,1.495 37.4,39.748 74.8,79.471 112.2,119.252 22.1,23.554 44.2,47.174 66.2,70.814 13.2,14.118 27.1,27.59 39.1,42.746 8.8,11.15 18.1,21.69 27.8,31.863 15.4,16.171 31.1,32.09 46.6,48.221 4.3,4.404 8,9.313 12.2,13.761 9.5,10.124 20.9,15.932 34.6,17.295 16.8,1.678 31.6,-3.911 43.2,-15.799 35.5,-36.085 70.1,-73.041 105.3,-109.38 10,-10.376 21.2,-19.132 35.1,-23.804 16.7,-5.646 31.5,-1.967 45,8.81 12,9.564 19.8,22.281 23,37.816 4.3,20.766 0.2,39.43 -14.1,54.905 -31.1,33.629 -61.8,67.616 -93.7,100.475 -16.2,16.819 -32.1,34.454 -51.6,47.461 -14.6,9.725 -30.5,16.115 -47.6,18.544 -0.5,0.07 -1,0.759 -1.4,1.595 -25.1,0.437 -50.1,0.437 -75.6,0.437 -2.4,-1.053 -4.2,-2.535 -6.2,-3.092 -23.3,-6.345 -44.6,-16.694 -62.1,-34.298 -29.3,-29.556 -58.2,-59.5 -87,-89.559 -18.5,-19.227 -36.4,-38.943 -54.6,-58.461 -15.1,-16.259 -30.3,-32.535 -45.3,-48.831 -11.7,-12.526 -23.2,-25.091 -34.8,-37.646 -11.1,-12.052 -22.2,-24.108 -33.3,-36.171 -10.2,-11.054 -20.3,-22.125 -30.5,-33.179 -11.2,-12.187 -22.7,-24.11 -33.6,-36.603 -17.1,-19.56 -32.4,-40.508 -45.1,-63.599 -11.8,-21.599 -21.7,-44.13 -28,-68.137 -4.5,-17.122 -7.8,-34.632 -10.9,-52.113 -4.3,-24.579 -5,-49.54 -3.8,-74.402 0.8,-17.342 2.9,-34.732 5.9,-51.81 3,-16.76 7,-33.442 12,-49.646 10.3,-33.193 25.9,-63.672 46.8,-90.805 11.9,-15.51 24.5,-30.608 38.2,-44.395 19.6,-19.779 41.3,-37.034 65.1,-51.091 24,-14.159 49.6,-23.956 76.3,-30.406 11.1,-2.681 22.5,-3.886 33.8,-5.605 4.4,-0.668 8.8,-0.902 13.5,-1.739 18.5,-0.406 36.9,-0.406 55.7,-0.406 z"
   id="path3"
   inkscape:export-filename="path5.svg"
   inkscape:export-xdpi="96"
   inkscape:export-ydpi="96"
   style="stroke-width:1.02648" />
<path
   fill="#5f49b5"
   opacity="1"
   stroke="none"
   d="m -3640165.7,44229.089 c -0.7,1.383 -1.7,2.171 -2,3.177 -2.7,10.521 -7.9,19.667 -14.6,27.705 -5.2,6.248 -12.5,9.635 -20.2,10.58 -12.3,1.488 -24.6,2.468 -36.9,3.215 -11.3,0.683 -22.5,1.193 -33.8,1.011 -12.2,-0.198 -24.4,-2.002 -36.6,-1.733 -8.2,0.181 -16.8,1.544 -24.5,4.497 -13.8,5.325 -24.8,15.301 -33.8,27.652 -0.6,0.83 -1.4,1.534 -2.1,2.283 -22.6,24.224 -45.3,48.386 -67.9,72.691 -13.3,14.257 -26.2,33.657 -44.7,31.5 -7,-0.827 -26.2,-21.293 -34.5,-31.482 -6,-7.372 -12,-14.737 -18,-22.092 -10.3,-12.613 -20.6,-25.246 -30.9,-37.813 -7.4,-8.916 -14.9,-17.685 -22.2,-26.611 -10,-12.186 -19.9,-24.482 -29.9,-36.685 -4.9,-6.049 -9.9,-12.124 -15,-17.962 -11.6,-13.022 -23.2,-25.909 -34.9,-38.832 -1,-1.139 -2.1,-2.265 -3.3,-3.187 -11.9,-9.182 -16.4,-3.961 -28,7.706 -0.8,0.81 -1.2,2.067 -1.9,2.923 -8.5,9.353 -17.1,18.66 -25.6,27.995 -7.6,8.322 -14.9,16.866 -22.7,24.95 -13.2,13.646 -28.7,23.063 -47.4,24.7 -10.6,0.931 -21.4,0.187 -32.1,0.192 -1.3,0 -2.6,-0.04 -4,-0.04 -23.1,-0 -46.3,0.16 -69.4,-0.06 -17.2,-0.159 -32.3,-5.843 -45.2,-18.291 -8.3,-8.066 -14.9,-17.244 -18.9,-28.327 -5.1,-14.052 -3.5,-27.786 2.6,-40.989 6.4,-13.591 14.8,-25.777 28.5,-31.714 7.5,-3.269 16,-5.473 24.1,-5.746 22.6,-0.762 45.3,-0.288 68,-0.257 14.8,0.02 27.5,-5.609 37.9,-16.583 16.4,-17.361 32.7,-34.971 48.9,-52.53 8.2,-8.887 16.1,-18.222 24.6,-26.758 10.6,-10.587 22.1,-20.106 36,-25.453 16.4,-6.302 32.5,-4.949 46,7.045 10.2,9.125 18.6,20.455 27.7,30.895 6,6.774 11.7,13.774 17.6,20.562 8.7,10.018 17.8,19.705 26.2,29.96 9.7,11.738 18.8,24.046 28.3,35.908 6.1,7.556 12.8,14.638 18.9,22.139 9.1,11.134 18,22.551 27.1,33.653 5.2,6.317 10.8,12.271 16.3,18.341 2.5,2.723 5.1,5.329 7.6,7.988 2.9,3.029 5.4,2.17 7.9,-0.617 7.3,-8.11 14.6,-16.276 22,-24.237 12.2,-12.996 24.5,-25.9 36.8,-38.735 5.6,-5.815 11,-12.038 17.2,-16.888 8.8,-6.723 18.8,-10.068 29.9,-10.034 50.2,0.155 100.3,-0.255 150.5,0.245 17.2,0.172 31.2,8.703 40,24.649 4.1,7.288 6.5,15.558 10,23.512 0.4,8.582 0.4,17.033 0.4,25.978 z"
   id="path4"
   style="stroke-width:1.02648"
   sodipodi:nodetypes="ccssssssscsssssssssssssssscssssssssssssssssssssssssssscc" />























</svg>
