<svg version="1.1" id="Layer_1" xmlns="http://www.w3.org/2000/svg" xmlns:xlink="http://www.w3.org/1999/xlink" x="0px" y="0px"
	 width="100%" viewBox="0 0 1152 913" enable-background="new 0 0 1152 913" xml:space="preserve">
<path fill="#FFFFFF" opacity="1.000000" stroke="none" 
	d="
M1153.000000,430.000000 
	C1153.000000,591.270569 1153.000000,752.541138 1153.000000,914.000000 
	C952.307556,914.000000 751.614990,914.000000 550.460999,913.780701 
	C549.999512,913.561401 550.071411,913.128784 550.504761,913.080627 
	C563.968140,912.026550 576.510742,909.032227 588.729309,904.358643 
	C608.328796,896.861694 624.060791,883.845459 638.681641,869.396912 
	C672.680359,835.798584 706.501892,802.019897 740.234436,768.154114 
	C747.503052,760.856873 755.071228,753.548584 760.814087,745.098572 
	C778.898499,718.489380 768.046814,678.953918 738.707214,662.117065 
	C726.969849,655.381592 714.570129,654.064087 701.603943,657.725281 
	C687.877197,661.601135 676.862122,669.931641 666.977173,679.714722 
	C635.354248,711.011536 603.956970,742.536255 572.426880,773.927124 
	C568.773987,777.563965 564.958191,781.060425 561.007935,784.371399 
	C533.432129,807.484497 500.098175,804.762390 476.437714,777.685608 
	C470.416351,770.794861 464.035217,764.214478 457.729767,757.576599 
	C436.888214,735.636047 414.150360,715.677490 393.902344,692.995789 
	C366.309418,662.086304 336.166199,633.450378 307.055328,603.899902 
	C266.132111,562.358765 225.117432,520.907593 184.218399,479.342712 
	C171.485962,466.402954 158.830933,453.363556 149.915695,437.285126 
	C123.926056,390.413513 115.826523,340.560242 126.994804,288.217682 
	C143.903381,208.971954 190.929260,155.132965 267.083191,127.492233 
	C298.883484,115.950035 332.052185,115.771690 365.284637,119.961983 
	C400.070404,124.348145 431.484497,136.851669 458.886719,159.061737 
	C470.383270,168.379913 481.962830,177.633606 493.965454,186.276627 
	C502.574310,192.475754 512.454773,195.898544 523.323059,196.210693 
	C537.645020,196.622009 549.271729,190.473755 560.372314,182.284439 
	C577.645447,169.541397 594.781128,156.549606 612.689636,144.747528 
	C631.072266,132.632996 651.384460,124.971710 673.589233,122.763107 
	C701.564270,119.980560 729.434814,120.491409 757.296387,124.106262 
	C772.468628,126.074753 787.371887,127.844284 801.253296,135.756088 
	C837.028687,156.146622 868.795959,180.721573 891.925476,215.449615 
	C896.029053,221.611084 901.382141,227.126678 906.893799,232.130280 
	C926.223877,249.678452 950.052063,251.847763 971.061951,237.798645 
	C1000.773987,217.930359 1012.640015,185.458252 988.409302,151.923172 
	C968.316101,124.114189 946.415588,98.144226 920.289917,75.822647 
	C892.855286,52.382786 863.248413,32.563740 828.548828,21.523066 
	C800.103577,12.472404 770.997681,6.480238 741.219421,3.698648 
	C703.742065,0.197884 666.761292,2.584491 630.245605,11.854259 
	C596.899719,20.319324 565.922363,34.193481 536.958069,52.644150 
	C527.306519,58.792339 517.935608,58.833767 508.587769,52.127995 
	C506.830475,50.867393 504.976135,49.742813 503.179932,48.535595 
	C465.215057,23.019241 422.934845,9.639759 377.908203,3.972107 
	C370.268463,3.010470 362.635895,1.992138 355.000000,1.000000 
	C620.907532,1.000000 886.815125,1.000000 1153.000000,1.000000 
	C1153.000000,140.025711 1153.000000,279.051605 1152.682861,418.303345 
	C1152.282593,418.037720 1152.187866,417.547882 1152.118164,417.054504 
	C1148.629639,392.350586 1133.084717,365.650177 1095.481567,365.919067 
	C1048.485718,366.255127 1001.485657,365.990417 954.487427,366.005066 
	C938.725342,366.009979 925.221130,371.689667 914.004517,382.653137 
	C907.693176,388.822021 901.705566,395.321289 895.544678,401.645050 
	C879.734070,417.873566 863.929016,434.107666 848.075684,450.294464 
	C843.182129,455.290894 840.559937,455.295898 835.503479,450.254791 
	C831.376587,446.140442 827.312195,441.944275 823.476013,437.560394 
	C783.667542,392.068756 743.942749,346.503784 704.117920,301.026489 
	C694.030518,289.507294 684.193237,277.695007 673.293762,266.981018 
	C661.504883,255.392654 646.998779,250.251709 630.251099,254.044312 
	C616.723083,257.107819 604.927917,263.992859 595.246765,273.444244 
	C569.748108,298.337891 544.582947,323.596954 519.973938,349.368378 
	C506.736115,363.231537 491.825562,371.965332 472.355560,371.836273 
	C452.042908,371.701599 431.726959,371.248169 411.418579,371.476654 
	C379.760651,371.832886 356.973602,390.087982 350.775604,420.221069 
	C349.536591,426.244751 349.280670,433.101898 350.851532,438.963684 
	C357.895996,465.250763 375.295532,482.358917 401.717865,487.533295 
	C417.510773,490.626099 434.188995,489.295715 450.475006,489.745178 
	C466.449127,490.186035 482.460754,489.844055 498.402069,490.771057 
	C525.799683,492.364319 549.854004,485.246857 569.271912,465.269928 
	C586.918152,447.115601 604.187866,428.595306 621.822937,410.429871 
	C634.063599,397.821075 640.109009,397.660736 652.197327,410.154724 
	C665.974792,424.394409 679.578613,438.833466 692.646179,453.722687 
	C729.674194,495.912598 766.701599,538.111206 803.095154,580.846252 
	C820.860901,601.707581 848.905762,601.636902 866.335632,590.220886 
	C874.175537,585.085938 881.226501,578.503479 887.854553,571.805115 
	C911.170593,548.242126 934.247009,524.439270 957.219238,500.539825 
	C972.982361,484.140320 991.860962,476.384399 1014.664307,478.167938 
	C1024.283325,478.920319 1033.957764,479.701569 1043.583862,479.476807 
	C1064.044800,478.999084 1084.485229,477.699585 1104.944214,477.058197 
	C1125.002197,476.429413 1139.115845,467.159790 1146.920044,448.741791 
	C1149.472778,442.717468 1151.002441,436.259583 1153.000000,430.000000 
z"/>
<path fill="#058EC2" opacity="1.000000" stroke="none" 
	d="
M354.531342,1.000000 
	C362.635895,1.992138 370.268463,3.010470 377.908203,3.972107 
	C422.934845,9.639759 465.215057,23.019241 503.179932,48.535595 
	C504.976135,49.742813 506.830475,50.867393 508.587769,52.127995 
	C517.935608,58.833767 527.306519,58.792339 536.958069,52.644150 
	C565.922363,34.193481 596.899719,20.319324 630.245605,11.854259 
	C666.761292,2.584491 703.742065,0.197884 741.219421,3.698648 
	C770.997681,6.480238 800.103577,12.472404 828.548828,21.523066 
	C863.248413,32.563740 892.855286,52.382786 920.289917,75.822647 
	C946.415588,98.144226 968.316101,124.114189 988.409302,151.923172 
	C1012.640015,185.458252 1000.773987,217.930359 971.061951,237.798645 
	C950.052063,251.847763 926.223877,249.678452 906.893799,232.130280 
	C901.382141,227.126678 896.029053,221.611084 891.925476,215.449615 
	C868.795959,180.721573 837.028687,156.146622 801.253296,135.756088 
	C787.371887,127.844284 772.468628,126.074753 757.296387,124.106262 
	C729.434814,120.491409 701.564270,119.980560 673.589233,122.763107 
	C651.384460,124.971710 631.072266,132.632996 612.689636,144.747528 
	C594.781128,156.549606 577.645447,169.541397 560.372314,182.284439 
	C549.271729,190.473755 537.645020,196.622009 523.323059,196.210693 
	C512.454773,195.898544 502.574310,192.475754 493.965454,186.276627 
	C481.962830,177.633606 470.383270,168.379913 458.886719,159.061737 
	C431.484497,136.851669 400.070404,124.348145 365.284637,119.961983 
	C332.052185,115.771690 298.883484,115.950035 267.083191,127.492233 
	C190.929260,155.132965 143.903381,208.971954 126.994804,288.217682 
	C115.826523,340.560242 123.926056,390.413513 149.915695,437.285126 
	C158.830933,453.363556 171.485962,466.402954 184.218399,479.342712 
	C225.117432,520.907593 266.132111,562.358765 307.055328,603.899902 
	C336.166199,633.450378 366.309418,662.086304 393.902344,692.995789 
	C414.150360,715.677490 436.888214,735.636047 457.729767,757.576599 
	C464.035217,764.214478 470.416351,770.794861 476.437714,777.685608 
	C500.098175,804.762390 533.432129,807.484497 561.007935,784.371399 
	C564.958191,781.060425 568.773987,777.563965 572.426880,773.927124 
	C603.956970,742.536255 635.354248,711.011536 666.977173,679.714722 
	C676.862122,669.931641 687.877197,661.601135 701.603943,657.725281 
	C714.570129,654.064087 726.969849,655.381592 738.707214,662.117065 
	C768.046814,678.953918 778.898499,718.489380 760.814087,745.098572 
	C755.071228,753.548584 747.503052,760.856873 740.234436,768.154114 
	C706.501892,802.019897 672.680359,835.798584 638.681641,869.396912 
	C624.060791,883.845459 608.328796,896.861694 588.729309,904.358643 
	C576.510742,909.032227 563.968140,912.026550 550.036865,913.000977 
	C530.403870,913.014771 511.672211,913.059998 492.514404,913.059631 
	C490.435425,912.839966 488.762604,912.774658 487.132690,912.475403 
	C459.088867,907.325806 434.087616,895.500916 413.616547,875.759705 
	C381.976776,845.247986 351.126190,813.916138 320.032806,782.840210 
	C296.828888,759.649414 273.572205,736.506042 250.687485,713.002319 
	C201.308731,662.287781 152.250549,611.261108 102.873772,560.544617 
	C70.143028,526.925842 44.768501,488.726837 28.939808,444.403992 
	C11.519127,395.623352 6.679744,345.332642 10.794256,293.940674 
	C13.770728,256.763336 22.684345,221.120071 38.266941,187.224762 
	C60.858528,138.083511 95.072006,98.337914 137.136749,64.840340 
	C180.032516,30.680977 228.660706,10.507677 282.974548,3.768551 
	C290.646088,2.816684 298.324677,1.921448 306.000000,1.000001 
	C322.020905,1.000000 338.041779,1.000000 354.531342,1.000000 
z"/>
<path fill="#FFFFFF" opacity="1.000000" stroke="none" 
	d="
M305.531342,1.000001 
	C298.324677,1.921448 290.646088,2.816684 282.974548,3.768551 
	C228.660706,10.507677 180.032516,30.680977 137.136749,64.840340 
	C95.072006,98.337914 60.858528,138.083511 38.266941,187.224762 
	C22.684345,221.120071 13.770728,256.763336 10.794256,293.940674 
	C6.679744,345.332642 11.519127,395.623352 28.939808,444.403992 
	C44.768501,488.726837 70.143028,526.925842 102.873772,560.544617 
	C152.250549,611.261108 201.308731,662.287781 250.687485,713.002319 
	C273.572205,736.506042 296.828888,759.649414 320.032806,782.840210 
	C351.126190,813.916138 381.976776,845.247986 413.616547,875.759705 
	C434.087616,895.500916 459.088867,907.325806 487.132690,912.475403 
	C488.762604,912.774658 490.435425,912.839966 492.557007,913.281494 
	C493.025696,913.548950 493.000000,914.000000 493.000000,914.000000 
	C329.041931,914.000000 165.083847,914.000000 1.062889,914.000000 
	C1.062889,609.786377 1.062889,305.572784 1.062889,1.000000 
	C102.353943,1.000000 203.708313,1.000000 305.531342,1.000001 
z"/>
<path fill="#5F49B5" opacity="1.000000" stroke="none" 
	d="
M1153.000000,429.541931 
	C1151.002441,436.259583 1149.472778,442.717468 1146.920044,448.741791 
	C1139.115845,467.159790 1125.002197,476.429413 1104.944214,477.058197 
	C1084.485229,477.699585 1064.044800,478.999084 1043.583862,479.476807 
	C1033.957764,479.701569 1024.283325,478.920319 1014.664307,478.167938 
	C991.860962,476.384399 972.982361,484.140320 957.219238,500.539825 
	C934.247009,524.439270 911.170593,548.242126 887.854553,571.805115 
	C881.226501,578.503479 874.175537,585.085938 866.335632,590.220886 
	C848.905762,601.636902 820.860901,601.707581 803.095154,580.846252 
	C766.701599,538.111206 729.674194,495.912598 692.646179,453.722687 
	C679.578613,438.833466 665.974792,424.394409 652.197327,410.154724 
	C640.109009,397.660736 634.063599,397.821075 621.822937,410.429871 
	C604.187866,428.595306 586.918152,447.115601 569.271912,465.269928 
	C549.854004,485.246857 525.799683,492.364319 498.402069,490.771057 
	C482.460754,489.844055 466.449127,490.186035 450.475006,489.745178 
	C434.188995,489.295715 417.510773,490.626099 401.717865,487.533295 
	C375.295532,482.358917 357.895996,465.250763 350.851532,438.963684 
	C349.280670,433.101898 349.536591,426.244751 350.775604,420.221069 
	C356.973602,390.087982 379.760651,371.832886 411.418579,371.476654 
	C431.726959,371.248169 452.042908,371.701599 472.355560,371.836273 
	C491.825562,371.965332 506.736115,363.231537 519.973938,349.368378 
	C544.582947,323.596954 569.748108,298.337891 595.246765,273.444244 
	C604.927917,263.992859 616.723083,257.107819 630.251099,254.044312 
	C646.998779,250.251709 661.504883,255.392654 673.293762,266.981018 
	C684.193237,277.695007 694.030518,289.507294 704.117920,301.026489 
	C743.942749,346.503784 783.667542,392.068756 823.476013,437.560394 
	C827.312195,441.944275 831.376587,446.140442 835.503479,450.254791 
	C840.559937,455.295898 843.182129,455.290894 848.075684,450.294464 
	C863.929016,434.107666 879.734070,417.873566 895.544678,401.645050 
	C901.705566,395.321289 907.693176,388.822021 914.004517,382.653137 
	C925.221130,371.689667 938.725342,366.009979 954.487427,366.005066 
	C1001.485657,365.990417 1048.485718,366.255127 1095.481567,365.919067 
	C1133.084717,365.650177 1148.629639,392.350586 1152.118164,417.054504 
	C1152.187866,417.547882 1152.282593,418.037720 1152.682861,418.764587 
	C1153.000000,422.361298 1153.000000,425.722565 1153.000000,429.541931 
z"/>
<path fill="#9ED3E7" opacity="1.000000" stroke="none" 
	d="
M493.468658,914.000000 
	C493.000000,914.000000 493.025696,913.548950 492.983124,913.327026 
	C511.672211,913.059998 530.403870,913.014771 549.603455,913.049194 
	C550.071411,913.128784 549.999512,913.561401 549.999756,913.780701 
	C531.312439,914.000000 512.624878,914.000000 493.468658,914.000000 
z"/>
</svg>