<svg version="1.1" id="Layer_1" xmlns="http://www.w3.org/2000/svg" xmlns:xlink="http://www.w3.org/1999/xlink" x="0px" y="0px"
	 width="100%" viewBox="0 0 2564 913" enable-background="new 0 0 2564 913" xml:space="preserve">
<path fill="#FFFFFF" opacity="1.000000" stroke="none" 
	d="
M1.000000,517.000000 
	C1.000000,345.031830 1.000000,173.063644 1.000000,1.000000 
	C571.362732,1.000000 1141.725464,1.000000 1712.351685,1.384999 
	C1708.193726,2.179528 1703.745239,2.401392 1699.356079,3.035244 
	C1688.058716,4.666712 1676.634033,5.810604 1665.536743,8.355062 
	C1638.839233,14.476368 1613.291748,23.774885 1589.266235,37.212944 
	C1565.415039,50.553535 1543.784668,66.929695 1524.162842,85.702080 
	C1510.486450,98.786354 1497.852905,113.115189 1485.923096,127.835930 
	C1465.054321,153.586426 1449.430420,182.513596 1439.133667,214.016449 
	C1434.107422,229.394363 1430.119385,245.227463 1427.162231,261.133514 
	C1424.148804,277.342010 1422.038330,293.846497 1421.224243,310.305084 
	C1420.057251,333.900299 1420.757690,357.590546 1425.090698,380.917542 
	C1428.172729,397.508789 1431.461182,414.126373 1435.945068,430.376984 
	C1442.231445,453.160919 1452.101440,474.544525 1463.947876,495.042999 
	C1476.613281,516.958801 1491.962646,536.839233 1509.028564,555.403137 
	C1519.929199,567.260620 1531.419800,578.575623 1542.636719,590.142639 
	C1552.809937,600.633057 1562.965820,611.140198 1573.138062,621.631470 
	C1584.238159,633.079773 1595.344238,644.522278 1606.455322,655.959961 
	C1618.030762,667.875793 1629.596802,679.800537 1641.200317,691.689026 
	C1656.295166,707.154785 1671.409180,722.601929 1686.539673,738.032898 
	C1704.703735,756.557129 1722.682861,775.268860 1741.120972,793.516724 
	C1769.946533,822.044861 1798.886841,850.463867 1828.175903,878.514282 
	C1845.621704,895.222351 1866.995117,905.044373 1890.230103,911.065979 
	C1892.269775,911.594666 1894.082031,913.001282 1896.000000,914.000000 
	C1606.637329,914.000000 1317.274536,914.000000 1027.626465,913.629150 
	C1048.890259,910.787048 1060.016602,901.010803 1065.552124,883.403992 
	C1066.966431,878.905518 1068.544800,877.941589 1072.746826,877.921143 
	C1114.499390,877.718018 1156.252197,877.418335 1198.002441,876.937195 
	C1207.814819,876.824158 1215.150513,871.721436 1219.840210,863.298462 
	C1223.713379,856.341858 1225.026489,848.619995 1225.016968,840.648132 
	C1224.976929,806.656555 1225.000000,772.664978 1225.000000,738.673401 
	C1225.000000,736.898865 1225.000000,735.124329 1225.000000,733.322571 
	C1219.379150,733.322571 1214.322388,733.322571 1209.000244,733.322571 
	C1209.000244,734.622253 1209.008545,735.600220 1208.999268,736.578064 
	C1208.667114,771.332886 1208.551514,806.091919 1207.884277,840.840332 
	C1207.643799,853.363831 1201.356567,860.953613 1187.858032,860.995728 
	C1180.193359,861.019592 1172.528564,861.000000 1164.863770,861.000000 
	C1159.627441,861.000000 1154.391113,861.000000 1150.462891,861.000000 
	C1150.996338,850.078186 1151.865356,839.805786 1151.930908,829.528320 
	C1152.124512,799.203735 1152.000000,768.877136 1152.000000,738.551331 
	C1152.000000,736.788452 1152.000000,735.025635 1152.000000,733.365845 
	C1146.289062,733.365845 1141.229980,733.365845 1136.000000,733.365845 
	C1136.000000,755.049072 1136.123413,776.367981 1135.958008,797.684692 
	C1135.840942,812.778870 1135.408325,827.872131 1134.974121,842.961792 
	C1134.666504,853.649292 1127.004639,860.981140 1116.369385,860.995239 
	C1101.872925,861.014404 1087.376587,861.000000 1072.880127,861.000000 
	C1071.301392,861.000000 1069.722656,861.000000 1067.832520,861.000000 
	C1067.832520,832.299561 1067.832520,804.362305 1067.832520,776.287598 
	C1062.452393,776.287598 1057.395142,776.287598 1052.000000,776.287598 
	C1052.000000,788.705078 1052.117554,800.839478 1051.973511,812.970764 
	C1051.738892,832.726807 1051.862549,852.509827 1050.779297,872.223511 
	C1050.227539,882.265381 1046.085571,891.390564 1035.342651,895.152222 
	C1030.817139,896.736877 1026.078613,897.713257 1021.000000,899.084106 
	C1021.000000,903.719666 1021.000000,908.859863 1021.000000,914.000000 
	C681.102051,914.000000 341.204071,914.000000 1.000000,914.000000 
	C1.000000,796.637451 1.000000,679.274658 1.468657,561.455933 
	C54.512020,561.000000 107.086723,561.000000 159.674988,561.000000 
	C159.674988,546.035400 159.674988,531.648499 159.674988,517.000000 
	C106.566933,517.000000 53.783466,517.000000 1.000000,517.000000 
M509.483459,349.018036 
	C508.320892,352.051758 506.937683,355.021240 506.033112,358.130005 
	C501.585571,373.415192 499.910828,388.873657 501.857880,404.842285 
	C503.357483,417.141449 506.348541,428.893463 511.576782,440.024689 
	C520.121399,458.216492 533.456909,472.102264 550.920593,481.952393 
	C566.431519,490.701050 583.482788,493.548126 600.976990,493.873657 
	C607.159363,493.988647 613.415955,492.952209 619.556152,491.940826 
	C635.833191,489.259735 650.646423,483.178345 662.751953,471.656403 
	C668.234802,466.437836 673.245850,460.723572 678.039429,455.687561 
	C686.123169,461.400757 693.991455,467.600311 702.465942,472.814423 
	C718.758972,482.838989 736.693115,488.829132 755.807861,488.865631 
	C888.969238,489.119934 1022.131409,489.038177 1155.293091,488.913910 
	C1164.151978,488.905640 1173.140137,488.386047 1181.836304,486.818787 
	C1193.612549,484.696503 1204.420288,479.419586 1212.620728,470.644348 
	C1225.375488,456.995514 1230.703125,439.780457 1230.820923,421.616058 
	C1231.266479,352.954773 1231.000000,284.288849 1231.000000,215.624664 
	C1231.000000,213.856888 1231.000000,212.089096 1231.000000,210.368759 
	C1214.319458,210.368759 1198.264771,210.368759 1182.000000,210.368759 
	C1182.000000,212.557846 1182.000000,214.378998 1182.000000,216.200150 
	C1182.000000,276.031311 1182.032104,335.862488 1181.955811,395.693573 
	C1181.947266,402.459503 1181.811279,409.293793 1180.855591,415.970581 
	C1179.912354,422.560059 1177.910767,428.734558 1171.703125,433.029907 
	C1165.724121,437.167023 1159.159424,438.778961 1152.365356,438.879639 
	C1130.537720,439.203186 1108.702026,439.000000 1086.869507,439.000000 
	C1085.293823,439.000000 1083.718140,439.000000 1082.935059,439.000000 
	C1081.558472,423.192505 1081.046021,408.131989 1078.751587,393.348053 
	C1076.057739,375.990967 1071.644043,358.940155 1065.039795,342.529449 
	C1055.711670,319.349670 1043.048096,298.258209 1025.620850,280.319244 
	C1018.647949,273.141571 1010.914185,266.572540 1002.900085,260.562073 
	C981.879089,244.796722 958.003235,235.429367 932.386108,230.204605 
	C930.292542,246.258438 928.249695,261.923584 926.209656,277.566895 
	C995.537109,291.537689 1039.255493,367.912628 1032.407227,438.708496 
	C1014.353638,438.708496 996.294067,438.708496 978.281616,438.708496 
	C978.173950,438.092621 977.997864,437.731323 978.083069,437.448730 
	C978.315613,436.677002 978.654968,435.937134 978.957947,435.187073 
	C987.635986,413.702820 991.255371,391.750916 984.993713,368.913605 
	C978.080872,343.701080 962.790588,325.951294 938.160522,316.604950 
	C921.260559,310.191956 903.817017,309.864532 886.132874,311.967102 
	C868.144470,314.105804 852.501160,321.273285 839.619202,333.965088 
	C825.456604,347.918488 818.881348,365.553284 817.132202,384.924225 
	C815.880859,398.781342 817.454956,412.496246 822.799866,425.596344 
	C824.501221,429.766357 825.656067,434.159363 826.923828,438.031403 
	C801.666321,438.031403 776.606018,438.343140 751.558533,437.911926 
	C737.044067,437.661987 726.000793,429.578094 717.470703,418.685516 
	C703.961121,401.434265 697.093384,380.863525 691.138672,360.165649 
	C685.133423,339.292236 675.019409,321.585022 656.721924,309.221710 
	C639.391602,297.511841 620.164917,292.027679 599.332642,292.008881 
	C563.667236,291.976715 528.000732,291.837463 492.337158,292.091583 
	C480.470612,292.176117 468.553558,292.807037 456.763306,294.119873 
	C440.286438,295.954559 425.574493,302.829407 413.115234,313.552490 
	C388.560028,334.686005 377.894775,362.903442 377.286224,394.248352 
	C376.247894,447.726257 377.000000,501.238922 377.000000,554.737000 
	C377.000000,556.684875 377.000000,558.632751 377.000000,560.680237 
	C393.580933,560.680237 409.634735,560.680237 426.000000,560.680237 
	C426.000000,558.559021 426.000000,556.748718 426.000000,554.938477 
	C426.000000,509.106812 426.089661,463.274841 425.947327,417.443604 
	C425.902527,403.015778 427.601013,388.898682 433.081970,375.557190 
	C441.568512,354.899597 454.882538,343.842010 476.791656,342.161743 
	C488.552551,341.259735 500.439545,342.001434 512.426331,342.001434 
	C511.549408,344.232056 510.734711,346.304413 509.483459,349.018036 
M165.000000,824.497620 
	C164.667038,830.923279 164.472122,837.359802 163.969833,843.772217 
	C163.145966,854.289978 155.710541,860.983459 145.084427,860.997925 
	C137.418015,861.008362 129.727921,861.355469 122.095284,860.847656 
	C118.368240,860.599670 114.414467,859.338684 111.142021,857.504028 
	C101.144760,851.899048 97.335556,842.251282 97.136833,831.558899 
	C96.697144,807.901123 97.000008,784.229614 97.000000,760.563660 
	C97.000000,758.799622 97.000000,757.035522 97.000000,755.000000 
	C79.889595,755.000000 63.411488,755.139282 46.936977,754.955688 
	C33.903297,754.810486 24.465376,761.132507 17.032005,771.042175 
	C8.735744,782.102173 6.358150,795.204529 6.189748,808.488037 
	C6.038004,820.457764 8.490973,832.251099 14.984718,842.650574 
	C24.978918,858.655884 37.858345,864.517395 56.714317,861.240845 
	C66.659462,859.512756 73.984161,854.397705 80.226257,846.860596 
	C85.642197,861.072021 91.852333,869.509094 102.654144,873.608032 
	C109.665062,876.268372 117.538338,877.706177 125.051414,877.810730 
	C157.044235,878.256042 189.047073,878.083374 221.045792,877.984253 
	C314.305237,877.695312 407.564514,877.353821 500.823547,876.955566 
	C507.241577,876.928162 512.838257,874.308105 517.554688,869.932739 
	C525.624390,862.446716 527.777832,852.460938 527.874084,842.260193 
	C528.202881,807.430969 528.000000,772.596863 528.000000,737.764587 
	C528.000000,736.314819 528.000000,734.865051 528.000000,733.291870 
	C522.111938,733.291870 516.720703,733.291870 511.000000,733.291870 
	C511.000000,735.384216 511.000000,737.187988 511.000000,738.991760 
	C511.000000,771.824097 511.072174,804.656799 510.909851,837.488342 
	C510.889221,841.657166 510.169769,845.999146 508.832275,849.941467 
	C507.038208,855.229553 503.402283,859.153748 497.406738,860.010315 
	C494.829681,860.378479 492.243896,860.937317 489.658844,860.955688 
	C476.220245,861.051025 462.780579,861.000000 449.000000,861.000000 
	C449.000000,856.635498 449.075592,852.831909 448.986572,849.032227 
	C448.648254,834.587280 447.269409,820.308533 442.015991,806.666748 
	C438.234344,796.846558 432.663422,788.312866 423.423035,782.899414 
	C405.488525,772.392517 386.998047,772.989502 368.775421,781.784180 
	C349.951874,790.869019 336.753235,805.870972 326.968109,824.081482 
	C325.962219,825.953369 324.766785,827.723450 323.659332,829.540710 
	C323.109314,829.294250 322.559326,829.047791 322.009338,828.801331 
	C322.009338,827.183044 321.935089,825.560791 322.021179,823.947083 
	C322.662933,811.920715 323.553223,799.903198 323.947357,787.869202 
	C324.490753,771.278870 324.651276,754.676147 325.026306,738.079956 
	C325.061676,736.514893 325.457184,734.957947 325.705444,733.261108 
	C319.892029,733.261108 314.141449,733.261108 307.891571,733.261108 
	C307.891571,775.912415 307.891571,818.305786 307.891571,860.695557 
	C288.671509,860.695557 269.955353,860.695557 251.975143,860.695557 
	C256.219971,832.469666 252.798889,804.334106 254.210556,776.352661 
	C248.319534,776.352661 243.258270,776.352661 237.000107,776.352661 
	C237.000107,798.951965 237.099365,821.198853 236.947357,843.444031 
	C236.892609,851.454712 232.238846,857.656311 224.624329,859.878052 
	C221.233795,860.867310 217.497574,860.916443 213.913727,860.953491 
	C202.016464,861.076416 190.117142,861.000000 178.508240,861.000000 
	C184.932755,832.582275 180.596512,804.397644 182.254456,776.294678 
	C176.106262,776.294678 170.714996,776.294678 165.000000,776.294678 
	C165.000000,792.224182 165.000000,807.861328 165.000000,824.497620 
M731.485291,875.104370 
	C746.198425,879.476990 761.290039,877.774841 776.262756,877.797546 
	C779.163086,877.801941 782.174927,877.333740 784.947449,876.476196 
	C799.742004,871.899963 806.043030,862.737488 806.758972,846.519714 
	C807.728149,824.563843 807.005127,802.532959 806.988403,780.534302 
	C806.987305,779.099854 806.819336,777.665527 806.737915,776.373169 
	C801.275879,776.373169 796.212524,776.373169 791.000000,776.373169 
	C791.000000,779.570068 791.040283,782.396301 790.993530,785.221008 
	C790.671936,804.646423 790.695312,824.087341 789.850952,843.490295 
	C789.402893,853.786865 783.202087,860.808838 770.844238,860.979248 
	C762.846252,861.089600 754.834839,861.257080 746.848938,860.927124 
	C738.976135,860.601807 732.628906,857.269470 727.843445,850.632507 
	C722.684998,843.478394 721.259277,835.308228 721.123779,827.035767 
	C720.760864,804.876343 721.000000,782.707153 721.000000,760.541809 
	C721.000000,758.779907 721.000000,757.018005 721.000000,755.000000 
	C718.538635,755.000000 716.726135,754.999939 714.913696,755.000000 
	C698.747986,755.000916 682.582275,754.988770 666.416748,755.036804 
	C665.490295,755.039551 664.573242,755.566528 663.638550,755.795349 
	C648.494568,759.502197 640.053223,769.987366 634.937256,783.956421 
	C630.411438,796.314453 630.063293,808.936890 631.978394,821.792175 
	C633.607239,832.726318 638.104187,842.334534 645.225342,850.681885 
	C657.335510,864.877136 680.924744,865.323547 694.594849,856.015747 
	C698.255310,853.523315 701.478455,850.388672 705.102844,847.382568 
	C709.804016,859.977722 717.109192,870.428101 731.485291,875.104370 
M932.422424,805.078186 
	C939.684143,788.072449 958.007812,785.471619 972.204651,792.045471 
	C979.086060,795.231812 981.921875,801.522827 983.880676,808.209595 
	C984.722717,811.084106 985.883057,812.435303 988.932190,812.019104 
	C994.243042,811.294250 999.570251,810.688721 1004.906372,810.031189 
	C1002.750549,797.698853 996.545227,788.774475 986.219910,782.744690 
	C979.534729,778.840637 972.389099,776.748718 964.624695,775.665039 
	C952.429993,773.962952 940.915161,775.647888 930.722534,782.029907 
	C913.508362,792.808228 903.394531,820.124939 908.439697,839.902954 
	C910.222839,846.893005 912.273926,853.814636 914.266113,860.996277 
	C902.520630,860.996277 890.383789,861.151733 878.256592,860.879089 
	C875.469421,860.816467 872.472900,859.720093 869.991333,858.344360 
	C862.607483,854.250671 861.163696,846.787598 861.109253,839.420654 
	C860.860474,805.762085 861.000000,772.100708 861.000000,738.440308 
	C861.000000,736.688232 861.000000,734.936157 861.000000,733.228455 
	C855.001404,733.228455 849.726562,733.228455 844.136047,733.228455 
	C844.085632,734.379395 844.006409,735.345886 844.006226,736.312378 
	C843.999634,773.972046 843.994324,811.631653 844.025574,849.291321 
	C844.026672,850.575806 844.302551,851.885620 844.620667,853.140503 
	C848.745789,869.409485 860.034180,877.939941 876.816772,877.973267 
	C917.975586,878.055054 959.134705,878.001892 1000.293701,877.992004 
	C1001.741760,877.991638 1003.189819,877.873352 1004.688599,877.807861 
	C1004.688599,872.070923 1004.688599,866.679871 1004.688599,861.000000 
	C984.240479,861.000000 964.098450,860.782166 943.966736,861.141296 
	C938.394653,861.240662 935.284790,858.957092 933.155884,854.434082 
	C925.602356,838.386108 926.533691,822.122009 932.422424,805.078186 
M246.481598,517.000000 
	C225.393478,517.000000 204.305359,517.000000 183.390900,517.000000 
	C183.390900,532.088318 183.390900,546.481873 183.390900,560.741272 
	C208.389572,560.741272 232.996643,560.741272 257.696259,560.741272 
	C257.696259,546.089294 257.696259,531.697632 257.696259,517.000000 
	C254.088806,517.000000 250.781815,517.000000 246.481598,517.000000 
M573.000000,848.500000 
	C573.000000,810.078186 573.000000,771.656433 573.000000,733.383667 
	C567.253784,733.383667 562.189636,733.383667 557.249817,733.383667 
	C557.249817,781.706970 557.249817,829.646240 557.249817,877.704895 
	C562.561707,877.704895 567.619690,877.704895 573.000000,877.704895 
	C573.000000,868.108948 573.000000,858.804504 573.000000,848.500000 
M313.498718,517.000000 
	C302.073639,517.000000 290.648560,517.000000 279.384094,517.000000 
	C279.384094,532.075317 279.384094,546.468323 279.384094,560.748535 
	C296.709503,560.748535 313.649780,560.748535 330.704163,560.748535 
	C330.704163,546.104492 330.704163,531.713379 330.704163,517.000000 
	C325.108521,517.000000 319.803314,517.000000 313.498718,517.000000 
M694.000000,724.610229 
	C694.000000,729.336060 694.000000,734.061890 694.000000,738.650085 
	C700.062805,738.650085 705.431763,738.650085 710.651855,738.650085 
	C710.651855,731.931580 710.651855,725.567627 710.651855,719.178040 
	C705.053833,719.178040 699.805603,719.178040 694.239441,719.178040 
	C694.154541,720.760254 694.077271,722.200012 694.000000,724.610229 
M680.252014,719.016052 
	C675.200195,719.016052 670.148315,719.016052 665.391724,719.016052 
	C665.391724,726.155457 665.391724,732.522949 665.391724,738.776672 
	C671.036926,738.776672 676.288086,738.776672 682.344116,738.776672 
	C681.953491,732.057373 681.577393,725.589172 680.252014,719.016052 
M153.000000,907.360352 
	C153.000000,902.302185 153.000000,897.244019 153.000000,892.359192 
	C146.918686,892.359192 141.548386,892.359192 136.358185,892.359192 
	C136.358185,899.088562 136.358185,905.453491 136.358185,911.999329 
	C141.007721,911.999329 145.311081,911.813721 149.589188,912.062439 
	C152.607559,912.237915 153.370239,910.944031 153.000000,907.360352 
M177.372482,912.000000 
	C178.806564,911.920959 180.240646,911.841858 181.717300,911.760498 
	C181.717300,905.066895 181.717300,898.706726 181.717300,892.288574 
	C176.065643,892.288574 170.700119,892.288574 165.286987,892.288574 
	C165.286987,898.941040 165.286987,905.302185 165.286987,912.000000 
	C169.178238,912.000000 172.790970,912.000000 177.372482,912.000000 
M763.710876,911.998108 
	C768.433228,911.998108 773.155518,911.998108 777.619385,911.998108 
	C777.619385,904.867188 777.619385,898.500916 777.619385,892.387817 
	C771.859863,892.387817 766.486816,892.387817 761.000732,892.387817 
	C761.000732,898.069153 760.901184,903.366577 761.080383,908.654663 
	C761.118530,909.782043 762.170044,910.875122 763.710876,911.998108 
M806.984070,910.248596 
	C806.984070,904.205078 806.984070,898.161499 806.984070,892.393066 
	C800.849487,892.393066 795.475647,892.393066 790.392822,892.393066 
	C790.392822,899.157959 790.392822,905.525452 790.392822,912.385254 
	C796.169250,911.969543 801.524597,911.584167 806.984070,910.248596 
M70.002029,736.288391 
	C70.796432,737.190002 71.547394,738.820740 72.392517,738.871094 
	C76.792953,739.133301 81.217361,738.993286 85.736221,738.993286 
	C85.736221,732.105408 85.736221,725.745300 85.736221,719.271179 
	C80.435867,719.271179 75.402557,719.271179 70.000221,719.271179 
	C70.000221,724.796936 70.000221,730.059814 70.002029,736.288391 
M48.521255,739.000000 
	C51.267605,739.000000 54.013954,739.000000 56.676758,739.000000 
	C56.676758,731.980286 56.676758,725.618225 56.676758,719.330505 
	C51.314747,719.330505 46.280590,719.330505 41.327461,719.330505 
	C41.327461,726.027649 41.327461,732.389709 41.327461,739.000000 
	C43.618881,739.000000 45.584690,739.000000 48.521255,739.000000 
M238.000000,901.488464 
	C238.000000,904.572083 238.000000,907.655762 238.000000,910.681396 
	C243.661438,910.681396 248.694717,910.681396 253.685257,910.681396 
	C253.685257,903.997192 253.685257,897.635864 253.685257,891.321472 
	C248.330490,891.321472 243.298416,891.321472 238.000000,891.321472 
	C238.000000,894.594910 238.000000,897.553345 238.000000,901.488464 
z"/>
<path fill="#FFFFFF" opacity="1.000000" stroke="none" 
	d="
M2565.000000,437.000000 
	C2565.000000,595.937195 2565.000000,754.874390 2565.000000,914.000000 
	C2367.640869,914.000000 2170.281738,914.000000 1972.479004,913.585815 
	C1972.491089,912.791748 1972.909912,912.138245 1973.407593,912.071533 
	C1990.598389,909.766052 2006.418091,903.701721 2021.015991,894.471863 
	C2040.539307,882.127686 2056.404785,865.391052 2072.692627,849.427917 
	C2104.512451,818.242432 2135.285645,785.986633 2166.385254,754.070251 
	C2180.696045,739.383728 2184.705811,721.670288 2180.444092,701.961853 
	C2177.255859,687.217957 2169.431885,675.148438 2157.454346,666.072144 
	C2143.956787,655.843872 2129.195557,652.351868 2112.438477,657.710083 
	C2098.570068,662.144592 2087.397461,670.454102 2077.346191,680.302185 
	C2042.145142,714.790222 2007.514282,749.863892 1972.082886,784.111084 
	C1960.409790,795.394043 1945.694946,800.698792 1928.842407,799.105591 
	C1915.167114,797.812683 1903.778931,792.300415 1894.242432,782.691589 
	C1890.052612,778.470093 1886.300659,773.810791 1882.071533,769.631836 
	C1866.578125,754.322449 1850.885620,739.213989 1835.431030,723.865845 
	C1825.709473,714.211243 1816.427246,704.208496 1807.607422,693.625977 
	C1795.619385,679.241760 1781.706421,666.455750 1768.545410,653.056763 
	C1746.508789,630.621399 1724.453491,608.204041 1702.334595,585.849854 
	C1664.976562,548.094421 1627.562744,510.394257 1590.171997,472.671234 
	C1589.702759,472.197754 1589.188843,471.762207 1588.763916,471.252197 
	C1582.469238,463.697113 1575.949097,456.314972 1569.953613,448.528961 
	C1559.918579,435.497101 1553.521606,420.510406 1547.693237,405.272949 
	C1540.541382,386.575256 1536.429199,367.126312 1535.195923,347.243713 
	C1534.460083,335.380127 1535.429688,323.383881 1536.054321,311.469360 
	C1536.929321,294.779144 1540.226562,278.393250 1545.905273,262.780090 
	C1550.993652,248.790085 1556.886353,234.871399 1564.322876,222.019928 
	C1571.549805,209.530609 1580.509766,197.848938 1589.978638,186.912277 
	C1597.939819,177.717087 1607.427979,169.748505 1616.772949,161.868637 
	C1632.460815,148.639969 1650.224731,138.784454 1669.319702,131.278244 
	C1688.586060,123.704643 1708.653442,119.553871 1729.192139,118.181686 
	C1739.388672,117.500458 1749.706543,118.826897 1759.973145,118.954330 
	C1776.623901,119.161018 1792.717163,122.493431 1808.652832,126.977608 
	C1832.215454,133.607941 1853.006836,145.394928 1872.078979,160.528275 
	C1883.854980,169.872223 1895.320557,179.736252 1907.837524,187.982239 
	C1921.096802,196.717316 1935.821289,199.263306 1951.708252,194.247879 
	C1964.012695,190.363403 1973.049927,181.949768 1982.910034,174.563873 
	C2003.377686,159.232300 2023.585938,143.493683 2047.331055,133.302780 
	C2060.735352,127.549858 2074.597900,123.557793 2089.300293,122.984032 
	C2095.734375,122.732941 2102.159180,122.069214 2108.591797,122.013664 
	C2122.450439,121.893990 2136.335205,121.567207 2150.164062,122.244957 
	C2160.587402,122.755791 2171.029541,124.221443 2181.297607,126.145523 
	C2190.001953,127.776558 2199.193604,129.277130 2206.901123,133.278503 
	C2227.607666,144.028259 2247.337891,156.436096 2264.865723,172.165314 
	C2275.962646,182.123550 2286.285400,192.646484 2295.239990,204.563309 
	C2303.292969,215.280121 2310.544434,226.603714 2321.402832,235.049561 
	C2335.700439,246.170197 2351.236084,249.876541 2368.755127,245.083633 
	C2381.839600,241.503952 2391.678711,233.075546 2400.187256,223.159714 
	C2412.003174,209.389160 2416.951416,193.692398 2412.250732,175.432999 
	C2409.578613,165.053268 2404.392578,156.151718 2397.926025,147.955505 
	C2386.057861,132.913116 2374.386475,117.658173 2361.626465,103.392174 
	C2346.096924,86.029755 2328.458984,70.809242 2309.584717,57.083042 
	C2290.932129,43.518265 2271.162354,31.900991 2249.423340,24.080662 
	C2228.915771,16.703211 2207.844971,11.200570 2186.254150,8.005414 
	C2171.219727,5.780531 2156.166992,2.899490 2141.040283,2.260933 
	C2119.421143,1.348296 2097.630615,0.830622 2076.199951,5.056992 
	C2059.317627,8.386385 2042.280518,11.380466 2025.798706,16.190535 
	C1998.828613,24.061480 1973.567261,36.113102 1950.010254,51.522804 
	C1939.929565,58.117153 1930.491821,58.675213 1920.280029,51.221439 
	C1911.912109,45.113544 1902.760254,39.999313 1893.644775,35.013489 
	C1876.619751,25.701454 1858.576050,18.707422 1839.907837,13.513622 
	C1821.529053,8.400368 1802.886597,4.448597 1783.792480,2.956734 
	C1778.840942,2.569856 1773.929688,1.666268 1769.000000,1.000007 
	C2034.240356,1.000000 2299.480713,1.000000 2565.000000,1.000000 
	C2565.000000,137.692368 2565.000000,274.384918 2564.643311,411.415344 
	C2561.131104,404.327362 2558.700928,396.478943 2554.671387,389.562195 
	C2545.854248,374.427582 2531.880859,366.331512 2514.612793,366.168182 
	C2464.462158,365.693726 2414.303711,366.082916 2364.148926,365.935608 
	C2353.047607,365.903015 2343.005859,369.078217 2334.289551,375.458466 
	C2328.000977,380.061615 2322.637451,385.967316 2317.053467,391.486481 
	C2304.728760,403.668243 2292.467041,415.914948 2280.294434,428.248932 
	C2272.837891,435.804626 2265.577148,443.554688 2258.264648,451.251648 
	C2255.751709,453.896667 2253.202881,454.711304 2250.331055,451.837311 
	C2247.809082,449.313507 2245.234375,446.839722 2242.775879,444.255646 
	C2237.294678,438.494781 2231.681641,432.844055 2226.467041,426.848694 
	C2217.302490,416.312195 2208.481934,405.477051 2199.351807,394.909912 
	C2193.200928,387.790649 2186.585449,381.069824 2180.498779,373.898285 
	C2170.943848,362.640137 2161.881836,350.959137 2152.194092,339.819611 
	C2143.729248,330.086304 2134.646240,320.892822 2125.919434,311.384613 
	C2120.006836,304.942688 2114.312988,298.299591 2108.387207,291.870117 
	C2099.255859,281.962128 2090.816895,271.208740 2080.611816,262.548920 
	C2067.197510,251.165909 2051.060547,249.881821 2034.657227,255.862625 
	C2020.740112,260.936890 2009.231445,269.971436 1998.640625,280.019257 
	C1990.101318,288.120697 1982.284912,296.979980 1974.057129,305.414612 
	C1957.801758,322.078766 1941.594604,338.792450 1925.150757,355.269470 
	C1914.757324,365.684052 1902.052856,371.027679 1887.205078,371.007904 
	C1864.543579,370.977753 1841.867065,370.528473 1819.228638,371.251251 
	C1811.110596,371.510437 1802.653442,373.602448 1795.110718,376.704895 
	C1781.412720,382.339172 1773.069946,393.904999 1766.698730,406.803497 
	C1760.508911,419.334534 1758.925293,432.368683 1764.047485,445.704681 
	C1768.087646,456.223694 1774.625854,464.934082 1782.955566,472.589600 
	C1795.809570,484.403229 1810.973145,489.798187 1828.103760,489.949249 
	C1851.263306,490.153412 1874.426147,489.999298 1897.587524,490.001770 
	C1898.920166,490.001923 1900.252808,490.040436 1901.585449,490.039795 
	C1912.281494,490.034821 1923.036987,490.741364 1933.660278,489.858154 
	C1952.348267,488.304504 1967.822632,479.367096 1981.000366,466.415771 
	C1988.806641,458.743622 1996.183228,450.634583 2003.767944,442.736328 
	C2012.275757,433.876923 2020.811035,425.043793 2029.300293,416.166779 
	C2030.077026,415.354553 2030.469116,414.161713 2031.275269,413.392548 
	C2042.880493,402.320221 2047.343262,397.364716 2059.281006,406.079407 
	C2060.479492,406.954376 2061.555908,408.023468 2062.581299,409.104614 
	C2074.212646,421.369446 2085.881592,433.599518 2097.412354,445.958435 
	C2102.581787,451.499237 2107.513672,457.265167 2112.464600,463.005463 
	C2122.453613,474.587219 2132.340820,486.257050 2142.349121,497.821869 
	C2149.681396,506.294159 2157.187012,514.616272 2164.531250,523.078186 
	C2174.882812,535.004761 2185.161377,546.994507 2195.462158,558.965149 
	C2201.468994,565.945923 2207.465576,572.935730 2213.453857,579.932495 
	C2221.729736,589.602295 2231.617188,596.692627 2244.622803,597.937439 
	C2263.465576,599.740906 2279.383789,593.446228 2292.627930,579.914612 
	C2315.205078,556.847900 2337.920410,533.916382 2360.575928,510.926605 
	C2361.276611,510.215485 2362.038086,509.547089 2362.641846,508.759521 
	C2371.627686,497.037445 2382.639648,487.569427 2396.487061,482.516022 
	C2404.167236,479.713257 2412.745117,478.419769 2420.956299,478.247772 
	C2433.134033,477.992645 2445.339111,479.704468 2457.543213,479.892181 
	C2468.800293,480.065369 2480.085938,479.581635 2491.332520,478.933289 
	C2503.641602,478.223663 2515.955322,477.294342 2528.200195,475.881409 
	C2535.969238,474.984894 2543.217773,471.770355 2548.433838,465.840210 
	C2555.143311,458.211884 2560.352295,449.531311 2563.055176,439.546539 
	C2563.313477,438.592163 2564.333496,437.843933 2565.000000,437.000000 
z"/>
<path fill="#048EC2" opacity="1.000000" stroke="none" 
	d="
M1768.531372,1.000007 
	C1773.929688,1.666268 1778.840942,2.569856 1783.792480,2.956734 
	C1802.886597,4.448597 1821.529053,8.400368 1839.907837,13.513622 
	C1858.576050,18.707422 1876.619751,25.701454 1893.644775,35.013489 
	C1902.760254,39.999313 1911.912109,45.113544 1920.280029,51.221439 
	C1930.491821,58.675213 1939.929565,58.117153 1950.010254,51.522804 
	C1973.567261,36.113102 1998.828613,24.061480 2025.798706,16.190535 
	C2042.280518,11.380466 2059.317627,8.386385 2076.199951,5.056992 
	C2097.630615,0.830622 2119.421143,1.348296 2141.040283,2.260933 
	C2156.166992,2.899490 2171.219727,5.780531 2186.254150,8.005414 
	C2207.844971,11.200570 2228.915771,16.703211 2249.423340,24.080662 
	C2271.162354,31.900991 2290.932129,43.518265 2309.584717,57.083042 
	C2328.458984,70.809242 2346.096924,86.029755 2361.626465,103.392174 
	C2374.386475,117.658173 2386.057861,132.913116 2397.926025,147.955505 
	C2404.392578,156.151718 2409.578613,165.053268 2412.250732,175.432999 
	C2416.951416,193.692398 2412.003174,209.389160 2400.187256,223.159714 
	C2391.678711,233.075546 2381.839600,241.503952 2368.755127,245.083633 
	C2351.236084,249.876541 2335.700439,246.170197 2321.402832,235.049561 
	C2310.544434,226.603714 2303.292969,215.280121 2295.239990,204.563309 
	C2286.285400,192.646484 2275.962646,182.123550 2264.865723,172.165314 
	C2247.337891,156.436096 2227.607666,144.028259 2206.901123,133.278503 
	C2199.193604,129.277130 2190.001953,127.776558 2181.297607,126.145523 
	C2171.029541,124.221443 2160.587402,122.755791 2150.164062,122.244957 
	C2136.335205,121.567207 2122.450439,121.893990 2108.591797,122.013664 
	C2102.159180,122.069214 2095.734375,122.732941 2089.300293,122.984032 
	C2074.597900,123.557793 2060.735352,127.549858 2047.331055,133.302780 
	C2023.585938,143.493683 2003.377686,159.232300 1982.910034,174.563873 
	C1973.049927,181.949768 1964.012695,190.363403 1951.708252,194.247879 
	C1935.821289,199.263306 1921.096802,196.717316 1907.837524,187.982239 
	C1895.320557,179.736252 1883.854980,169.872223 1872.078979,160.528275 
	C1853.006836,145.394928 1832.215454,133.607941 1808.652832,126.977608 
	C1792.717163,122.493431 1776.623901,119.161018 1759.973145,118.954330 
	C1749.706543,118.826897 1739.388672,117.500458 1729.192139,118.181686 
	C1708.653442,119.553871 1688.586060,123.704643 1669.319702,131.278244 
	C1650.224731,138.784454 1632.460815,148.639969 1616.772949,161.868637 
	C1607.427979,169.748505 1597.939819,177.717087 1589.978638,186.912277 
	C1580.509766,197.848938 1571.549805,209.530609 1564.322876,222.019928 
	C1556.886353,234.871399 1550.993652,248.790085 1545.905273,262.780090 
	C1540.226562,278.393250 1536.929321,294.779144 1536.054321,311.469360 
	C1535.429688,323.383881 1534.460083,335.380127 1535.195923,347.243713 
	C1536.429199,367.126312 1540.541382,386.575256 1547.693237,405.272949 
	C1553.521606,420.510406 1559.918579,435.497101 1569.953613,448.528961 
	C1575.949097,456.314972 1582.469238,463.697113 1588.763916,471.252197 
	C1589.188843,471.762207 1589.702759,472.197754 1590.171997,472.671234 
	C1627.562744,510.394257 1664.976562,548.094421 1702.334595,585.849854 
	C1724.453491,608.204041 1746.508789,630.621399 1768.545410,653.056763 
	C1781.706421,666.455750 1795.619385,679.241760 1807.607422,693.625977 
	C1816.427246,704.208496 1825.709473,714.211243 1835.431030,723.865845 
	C1850.885620,739.213989 1866.578125,754.322449 1882.071533,769.631836 
	C1886.300659,773.810791 1890.052612,778.470093 1894.242432,782.691589 
	C1903.778931,792.300415 1915.167114,797.812683 1928.842407,799.105591 
	C1945.694946,800.698792 1960.409790,795.394043 1972.082886,784.111084 
	C2007.514282,749.863892 2042.145142,714.790222 2077.346191,680.302185 
	C2087.397461,670.454102 2098.570068,662.144592 2112.438477,657.710083 
	C2129.195557,652.351868 2143.956787,655.843872 2157.454346,666.072144 
	C2169.431885,675.148438 2177.255859,687.217957 2180.444092,701.961853 
	C2184.705811,721.670288 2180.696045,739.383728 2166.385254,754.070251 
	C2135.285645,785.986633 2104.512451,818.242432 2072.692627,849.427917 
	C2056.404785,865.391052 2040.539307,882.127686 2021.015991,894.471863 
	C2006.418091,903.701721 1990.598389,909.766052 1973.407593,912.071533 
	C1972.909912,912.138245 1972.491089,912.791748 1972.017822,913.585815 
	C1946.979126,914.000000 1921.958130,914.000000 1896.468628,914.000000 
	C1894.082031,913.001282 1892.269775,911.594666 1890.230103,911.065979 
	C1866.995117,905.044373 1845.621704,895.222351 1828.175903,878.514282 
	C1798.886841,850.463867 1769.946533,822.044861 1741.120972,793.516724 
	C1722.682861,775.268860 1704.703735,756.557129 1686.539673,738.032898 
	C1671.409180,722.601929 1656.295166,707.154785 1641.200317,691.689026 
	C1629.596802,679.800537 1618.030762,667.875793 1606.455322,655.959961 
	C1595.344238,644.522278 1584.238159,633.079773 1573.138062,621.631470 
	C1562.965820,611.140198 1552.809937,600.633057 1542.636719,590.142639 
	C1531.419800,578.575623 1519.929199,567.260620 1509.028564,555.403137 
	C1491.962646,536.839233 1476.613281,516.958801 1463.947876,495.042999 
	C1452.101440,474.544525 1442.231445,453.160919 1435.945068,430.376984 
	C1431.461182,414.126373 1428.172729,397.508789 1425.090698,380.917542 
	C1420.757690,357.590546 1420.057251,333.900299 1421.224243,310.305084 
	C1422.038330,293.846497 1424.148804,277.342010 1427.162231,261.133514 
	C1430.119385,245.227463 1434.107422,229.394363 1439.133667,214.016449 
	C1449.430420,182.513596 1465.054321,153.586426 1485.923096,127.835930 
	C1497.852905,113.115189 1510.486450,98.786354 1524.162842,85.702080 
	C1543.784668,66.929695 1565.415039,50.553535 1589.266235,37.212944 
	C1613.291748,23.774885 1638.839233,14.476368 1665.536743,8.355062 
	C1676.634033,5.810604 1688.058716,4.666712 1699.356079,3.035244 
	C1703.745239,2.401392 1708.193726,2.179528 1712.807617,1.384999 
	C1731.354248,1.000000 1749.708496,1.000000 1768.531372,1.000007 
z"/>
<path fill="#5F49B5" opacity="1.000000" stroke="none" 
	d="
M2565.000000,436.531372 
	C2564.333496,437.843933 2563.313477,438.592163 2563.055176,439.546539 
	C2560.352295,449.531311 2555.143311,458.211884 2548.433838,465.840210 
	C2543.217773,471.770355 2535.969238,474.984894 2528.200195,475.881409 
	C2515.955322,477.294342 2503.641602,478.223663 2491.332520,478.933289 
	C2480.085938,479.581635 2468.800293,480.065369 2457.543213,479.892181 
	C2445.339111,479.704468 2433.134033,477.992645 2420.956299,478.247772 
	C2412.745117,478.419769 2404.167236,479.713257 2396.487061,482.516022 
	C2382.639648,487.569427 2371.627686,497.037445 2362.641846,508.759521 
	C2362.038086,509.547089 2361.276611,510.215485 2360.575928,510.926605 
	C2337.920410,533.916382 2315.205078,556.847900 2292.627930,579.914612 
	C2279.383789,593.446228 2263.465576,599.740906 2244.622803,597.937439 
	C2231.617188,596.692627 2221.729736,589.602295 2213.453857,579.932495 
	C2207.465576,572.935730 2201.468994,565.945923 2195.462158,558.965149 
	C2185.161377,546.994507 2174.882812,535.004761 2164.531250,523.078186 
	C2157.187012,514.616272 2149.681396,506.294159 2142.349121,497.821869 
	C2132.340820,486.257050 2122.453613,474.587219 2112.464600,463.005463 
	C2107.513672,457.265167 2102.581787,451.499237 2097.412354,445.958435 
	C2085.881592,433.599518 2074.212646,421.369446 2062.581299,409.104614 
	C2061.555908,408.023468 2060.479492,406.954376 2059.281006,406.079407 
	C2047.343262,397.364716 2042.880493,402.320221 2031.275269,413.392548 
	C2030.469116,414.161713 2030.077026,415.354553 2029.300293,416.166779 
	C2020.811035,425.043793 2012.275757,433.876923 2003.767944,442.736328 
	C1996.183228,450.634583 1988.806641,458.743622 1981.000366,466.415771 
	C1967.822632,479.367096 1952.348267,488.304504 1933.660278,489.858154 
	C1923.036987,490.741364 1912.281494,490.034821 1901.585449,490.039795 
	C1900.252808,490.040436 1898.920166,490.001923 1897.587524,490.001770 
	C1874.426147,489.999298 1851.263306,490.153412 1828.103760,489.949249 
	C1810.973145,489.798187 1795.809570,484.403229 1782.955566,472.589600 
	C1774.625854,464.934082 1768.087646,456.223694 1764.047485,445.704681 
	C1758.925293,432.368683 1760.508911,419.334534 1766.698730,406.803497 
	C1773.069946,393.904999 1781.412720,382.339172 1795.110718,376.704895 
	C1802.653442,373.602448 1811.110596,371.510437 1819.228638,371.251251 
	C1841.867065,370.528473 1864.543579,370.977753 1887.205078,371.007904 
	C1902.052856,371.027679 1914.757324,365.684052 1925.150757,355.269470 
	C1941.594604,338.792450 1957.801758,322.078766 1974.057129,305.414612 
	C1982.284912,296.979980 1990.101318,288.120697 1998.640625,280.019257 
	C2009.231445,269.971436 2020.740112,260.936890 2034.657227,255.862625 
	C2051.060547,249.881821 2067.197510,251.165909 2080.611816,262.548920 
	C2090.816895,271.208740 2099.255859,281.962128 2108.387207,291.870117 
	C2114.312988,298.299591 2120.006836,304.942688 2125.919434,311.384613 
	C2134.646240,320.892822 2143.729248,330.086304 2152.194092,339.819611 
	C2161.881836,350.959137 2170.943848,362.640137 2180.498779,373.898285 
	C2186.585449,381.069824 2193.200928,387.790649 2199.351807,394.909912 
	C2208.481934,405.477051 2217.302490,416.312195 2226.467041,426.848694 
	C2231.681641,432.844055 2237.294678,438.494781 2242.775879,444.255646 
	C2245.234375,446.839722 2247.809082,449.313507 2250.331055,451.837311 
	C2253.202881,454.711304 2255.751709,453.896667 2258.264648,451.251648 
	C2265.577148,443.554688 2272.837891,435.804626 2280.294434,428.248932 
	C2292.467041,415.914948 2304.728760,403.668243 2317.053467,391.486481 
	C2322.637451,385.967316 2328.000977,380.061615 2334.289551,375.458466 
	C2343.005859,369.078217 2353.047607,365.903015 2364.148926,365.935608 
	C2414.303711,366.082916 2464.462158,365.693726 2514.612793,366.168182 
	C2531.880859,366.331512 2545.854248,374.427582 2554.671387,389.562195 
	C2558.700928,396.478943 2561.131104,404.327362 2564.643311,411.876617 
	C2565.000000,420.020905 2565.000000,428.041809 2565.000000,436.531372 
z"/>
<path fill="#048EC2" opacity="1.000000" stroke="none" 
	d="
M1021.428467,914.000000 
	C1021.000000,908.859863 1021.000000,903.719666 1021.000000,899.084106 
	C1026.078613,897.713257 1030.817139,896.736877 1035.342651,895.152222 
	C1046.085571,891.390564 1050.227539,882.265381 1050.779297,872.223511 
	C1051.862549,852.509827 1051.738892,832.726807 1051.973511,812.970764 
	C1052.117554,800.839478 1052.000000,788.705078 1052.000000,776.287598 
	C1057.395142,776.287598 1062.452393,776.287598 1067.832520,776.287598 
	C1067.832520,804.362305 1067.832520,832.299561 1067.832520,861.000000 
	C1069.722656,861.000000 1071.301392,861.000000 1072.880127,861.000000 
	C1087.376587,861.000000 1101.872925,861.014404 1116.369385,860.995239 
	C1127.004639,860.981140 1134.666504,853.649292 1134.974121,842.961792 
	C1135.408325,827.872131 1135.840942,812.778870 1135.958008,797.684692 
	C1136.123413,776.367981 1136.000000,755.049072 1136.000000,733.365845 
	C1141.229980,733.365845 1146.289062,733.365845 1152.000000,733.365845 
	C1152.000000,735.025635 1152.000000,736.788452 1152.000000,738.551331 
	C1152.000000,768.877136 1152.124512,799.203735 1151.930908,829.528320 
	C1151.865356,839.805786 1150.996338,850.078186 1150.462891,861.000000 
	C1154.391113,861.000000 1159.627441,861.000000 1164.863770,861.000000 
	C1172.528564,861.000000 1180.193359,861.019592 1187.858032,860.995728 
	C1201.356567,860.953613 1207.643799,853.363831 1207.884277,840.840332 
	C1208.551514,806.091919 1208.667114,771.332886 1208.999268,736.578064 
	C1209.008545,735.600220 1209.000244,734.622253 1209.000244,733.322571 
	C1214.322388,733.322571 1219.379150,733.322571 1225.000000,733.322571 
	C1225.000000,735.124329 1225.000000,736.898865 1225.000000,738.673401 
	C1225.000000,772.664978 1224.976929,806.656555 1225.016968,840.648132 
	C1225.026489,848.619995 1223.713379,856.341858 1219.840210,863.298462 
	C1215.150513,871.721436 1207.814819,876.824158 1198.002441,876.937195 
	C1156.252197,877.418335 1114.499390,877.718018 1072.746826,877.921143 
	C1068.544800,877.941589 1066.966431,878.905518 1065.552124,883.403992 
	C1060.016602,901.010803 1048.890259,910.787048 1027.170654,913.629150 
	C1025.285645,914.000000 1023.571289,914.000000 1021.428467,914.000000 
z"/>
<path fill="#048EC2" opacity="1.000000" stroke="none" 
	d="
M1.000000,517.468628 
	C53.783466,517.000000 106.566933,517.000000 159.674988,517.000000 
	C159.674988,531.648499 159.674988,546.035400 159.674988,561.000000 
	C107.086723,561.000000 54.512020,561.000000 1.468657,561.000000 
	C1.000000,546.645752 1.000000,532.291565 1.000000,517.468628 
z"/>
<path fill="#5F49B5" opacity="1.000000" stroke="none" 
	d="
M509.701721,348.697388 
	C510.734711,346.304413 511.549408,344.232056 512.426331,342.001434 
	C500.439545,342.001434 488.552551,341.259735 476.791656,342.161743 
	C454.882538,343.842010 441.568512,354.899597 433.081970,375.557190 
	C427.601013,388.898682 425.902527,403.015778 425.947327,417.443604 
	C426.089661,463.274841 426.000000,509.106812 426.000000,554.938477 
	C426.000000,556.748718 426.000000,558.559021 426.000000,560.680237 
	C409.634735,560.680237 393.580933,560.680237 377.000000,560.680237 
	C377.000000,558.632751 377.000000,556.684875 377.000000,554.737000 
	C377.000000,501.238922 376.247894,447.726257 377.286224,394.248352 
	C377.894775,362.903442 388.560028,334.686005 413.115234,313.552490 
	C425.574493,302.829407 440.286438,295.954559 456.763306,294.119873 
	C468.553558,292.807037 480.470612,292.176117 492.337158,292.091583 
	C528.000732,291.837463 563.667236,291.976715 599.332642,292.008881 
	C620.164917,292.027679 639.391602,297.511841 656.721924,309.221710 
	C675.019409,321.585022 685.133423,339.292236 691.138672,360.165649 
	C697.093384,380.863525 703.961121,401.434265 717.470703,418.685516 
	C726.000793,429.578094 737.044067,437.661987 751.558533,437.911926 
	C776.606018,438.343140 801.666321,438.031403 826.923828,438.031403 
	C825.656067,434.159363 824.501221,429.766357 822.799866,425.596344 
	C817.454956,412.496246 815.880859,398.781342 817.132202,384.924225 
	C818.881348,365.553284 825.456604,347.918488 839.619202,333.965088 
	C852.501160,321.273285 868.144470,314.105804 886.132874,311.967102 
	C903.817017,309.864532 921.260559,310.191956 938.160522,316.604950 
	C962.790588,325.951294 978.080872,343.701080 984.993713,368.913605 
	C991.255371,391.750916 987.635986,413.702820 978.957947,435.187073 
	C978.654968,435.937134 978.315613,436.677002 978.083069,437.448730 
	C977.997864,437.731323 978.173950,438.092621 978.281616,438.708496 
	C996.294067,438.708496 1014.353638,438.708496 1032.407227,438.708496 
	C1039.255493,367.912628 995.537109,291.537689 926.209656,277.566895 
	C928.249695,261.923584 930.292542,246.258438 932.386108,230.204605 
	C958.003235,235.429367 981.879089,244.796722 1002.900085,260.562073 
	C1010.914185,266.572540 1018.647949,273.141571 1025.620850,280.319244 
	C1043.048096,298.258209 1055.711670,319.349670 1065.039795,342.529449 
	C1071.644043,358.940155 1076.057739,375.990967 1078.751587,393.348053 
	C1081.046021,408.131989 1081.558472,423.192505 1082.935059,439.000000 
	C1083.718140,439.000000 1085.293823,439.000000 1086.869507,439.000000 
	C1108.702026,439.000000 1130.537720,439.203186 1152.365356,438.879639 
	C1159.159424,438.778961 1165.724121,437.167023 1171.703125,433.029907 
	C1177.910767,428.734558 1179.912354,422.560059 1180.855591,415.970581 
	C1181.811279,409.293793 1181.947266,402.459503 1181.955811,395.693573 
	C1182.032104,335.862488 1182.000000,276.031311 1182.000000,216.200150 
	C1182.000000,214.378998 1182.000000,212.557846 1182.000000,210.368759 
	C1198.264771,210.368759 1214.319458,210.368759 1231.000000,210.368759 
	C1231.000000,212.089096 1231.000000,213.856888 1231.000000,215.624664 
	C1231.000000,284.288849 1231.266479,352.954773 1230.820923,421.616058 
	C1230.703125,439.780457 1225.375488,456.995514 1212.620728,470.644348 
	C1204.420288,479.419586 1193.612549,484.696503 1181.836304,486.818787 
	C1173.140137,488.386047 1164.151978,488.905640 1155.293091,488.913910 
	C1022.131409,489.038177 888.969238,489.119934 755.807861,488.865631 
	C736.693115,488.829132 718.758972,482.838989 702.465942,472.814423 
	C693.991455,467.600311 686.123169,461.400757 678.039429,455.687561 
	C673.245850,460.723572 668.234802,466.437836 662.751953,471.656403 
	C650.646423,483.178345 635.833191,489.259735 619.556152,491.940826 
	C613.415955,492.952209 607.159363,493.988647 600.976990,493.873657 
	C583.482788,493.548126 566.431519,490.701050 550.920593,481.952393 
	C533.456909,472.102264 520.121399,458.216492 511.576782,440.024689 
	C506.348541,428.893463 503.357483,417.141449 501.857880,404.842285 
	C499.910828,388.873657 501.585571,373.415192 506.033112,358.130005 
	C506.937683,355.021240 508.320892,352.051758 509.701721,348.697388 
M591.527405,447.020752 
	C605.751648,451.671600 625.802856,443.820770 635.013489,429.850494 
	C643.389709,417.145874 646.594666,403.334534 645.169678,388.020508 
	C643.777954,373.063690 638.835388,360.295868 628.127380,349.487762 
	C609.690979,330.879028 576.696533,333.158295 562.022278,356.072296 
	C549.611633,375.451508 548.632019,396.179688 556.811523,417.178009 
	C562.833679,432.638031 573.842529,443.342041 591.527405,447.020752 
M864.001038,402.166382 
	C865.180725,410.148682 867.937805,417.367859 872.481323,424.211639 
	C886.206726,444.886292 917.545105,446.445312 932.876831,424.070435 
	C940.813599,412.487640 943.471313,399.485382 941.111023,385.319885 
	C938.595398,370.222656 929.445740,355.363159 912.318848,351.143311 
	C894.682373,346.797913 874.927612,354.695831 867.501709,373.603394 
	C863.904480,382.762634 864.122131,391.897583 864.001038,402.166382 
z"/>
<path fill="#048EC2" opacity="1.000000" stroke="none" 
	d="
M165.000000,823.998047 
	C165.000000,807.861328 165.000000,792.224182 165.000000,776.294678 
	C170.714996,776.294678 176.106262,776.294678 182.254456,776.294678 
	C180.596512,804.397644 184.932755,832.582275 178.508240,861.000000 
	C190.117142,861.000000 202.016464,861.076416 213.913727,860.953491 
	C217.497574,860.916443 221.233795,860.867310 224.624329,859.878052 
	C232.238846,857.656311 236.892609,851.454712 236.947357,843.444031 
	C237.099365,821.198853 237.000107,798.951965 237.000107,776.352661 
	C243.258270,776.352661 248.319534,776.352661 254.210556,776.352661 
	C252.798889,804.334106 256.219971,832.469666 251.975143,860.695557 
	C269.955353,860.695557 288.671509,860.695557 307.891571,860.695557 
	C307.891571,818.305786 307.891571,775.912415 307.891571,733.261108 
	C314.141449,733.261108 319.892029,733.261108 325.705444,733.261108 
	C325.457184,734.957947 325.061676,736.514893 325.026306,738.079956 
	C324.651276,754.676147 324.490753,771.278870 323.947357,787.869202 
	C323.553223,799.903198 322.662933,811.920715 322.021179,823.947083 
	C321.935089,825.560791 322.009338,827.183044 322.009338,828.801331 
	C322.559326,829.047791 323.109314,829.294250 323.659332,829.540710 
	C324.766785,827.723450 325.962219,825.953369 326.968109,824.081482 
	C336.753235,805.870972 349.951874,790.869019 368.775421,781.784180 
	C386.998047,772.989502 405.488525,772.392517 423.423035,782.899414 
	C432.663422,788.312866 438.234344,796.846558 442.015991,806.666748 
	C447.269409,820.308533 448.648254,834.587280 448.986572,849.032227 
	C449.075592,852.831909 449.000000,856.635498 449.000000,861.000000 
	C462.780579,861.000000 476.220245,861.051025 489.658844,860.955688 
	C492.243896,860.937317 494.829681,860.378479 497.406738,860.010315 
	C503.402283,859.153748 507.038208,855.229553 508.832275,849.941467 
	C510.169769,845.999146 510.889221,841.657166 510.909851,837.488342 
	C511.072174,804.656799 511.000000,771.824097 511.000000,738.991760 
	C511.000000,737.187988 511.000000,735.384216 511.000000,733.291870 
	C516.720703,733.291870 522.111938,733.291870 528.000000,733.291870 
	C528.000000,734.865051 528.000000,736.314819 528.000000,737.764587 
	C528.000000,772.596863 528.202881,807.430969 527.874084,842.260193 
	C527.777832,852.460938 525.624390,862.446716 517.554688,869.932739 
	C512.838257,874.308105 507.241577,876.928162 500.823547,876.955566 
	C407.564514,877.353821 314.305237,877.695312 221.045792,877.984253 
	C189.047073,878.083374 157.044235,878.256042 125.051414,877.810730 
	C117.538338,877.706177 109.665062,876.268372 102.654144,873.608032 
	C91.852333,869.509094 85.642197,861.072021 80.226257,846.860596 
	C73.984161,854.397705 66.659462,859.512756 56.714317,861.240845 
	C37.858345,864.517395 24.978918,858.655884 14.984718,842.650574 
	C8.490973,832.251099 6.038004,820.457764 6.189748,808.488037 
	C6.358150,795.204529 8.735744,782.102173 17.032005,771.042175 
	C24.465376,761.132507 33.903297,754.810486 46.936977,754.955688 
	C63.411488,755.139282 79.889595,755.000000 97.000000,755.000000 
	C97.000000,757.035522 97.000000,758.799622 97.000000,760.563660 
	C97.000008,784.229614 96.697144,807.901123 97.136833,831.558899 
	C97.335556,842.251282 101.144760,851.899048 111.142021,857.504028 
	C114.414467,859.338684 118.368240,860.599670 122.095284,860.847656 
	C129.727921,861.355469 137.418015,861.008362 145.084427,860.997925 
	C155.710541,860.983459 163.145966,854.289978 163.969833,843.772217 
	C164.472122,837.359802 164.667038,830.923279 165.000000,823.998047 
M358.533844,805.975708 
	C341.618469,820.789001 329.397644,838.648926 322.657288,860.709412 
	C358.914856,860.709412 394.629730,860.709412 430.717651,860.709412 
	C432.485168,852.870422 432.069366,845.019714 431.166931,836.954651 
	C429.990692,826.442932 427.443817,816.613403 422.123962,807.414856 
	C414.645172,794.483337 399.877869,788.152466 385.660309,791.666382 
	C375.610352,794.150208 367.080170,799.263916 358.533844,805.975708 
M76.994675,827.297852 
	C81.783302,807.441528 79.462158,787.307190 79.996117,767.002808 
	C69.707382,767.002808 60.052059,766.637451 50.438541,767.114563 
	C42.258072,767.520508 35.421627,771.930359 31.322075,778.622742 
	C20.012123,797.085815 19.801922,816.369629 30.182468,835.294434 
	C38.111156,849.749268 53.915852,853.588745 66.777061,843.725342 
	C71.422058,840.163025 73.626961,833.419067 76.994675,827.297852 
z"/>
<path fill="#048EC2" opacity="1.000000" stroke="none" 
	d="
M731.079712,875.057007 
	C717.109192,870.428101 709.804016,859.977722 705.102844,847.382568 
	C701.478455,850.388672 698.255310,853.523315 694.594849,856.015747 
	C680.924744,865.323547 657.335510,864.877136 645.225342,850.681885 
	C638.104187,842.334534 633.607239,832.726318 631.978394,821.792175 
	C630.063293,808.936890 630.411438,796.314453 634.937256,783.956421 
	C640.053223,769.987366 648.494568,759.502197 663.638550,755.795349 
	C664.573242,755.566528 665.490295,755.039551 666.416748,755.036804 
	C682.582275,754.988770 698.747986,755.000916 714.913696,755.000000 
	C716.726135,754.999939 718.538635,755.000000 721.000000,755.000000 
	C721.000000,757.018005 721.000000,758.779907 721.000000,760.541809 
	C721.000000,782.707153 720.760864,804.876343 721.123779,827.035767 
	C721.259277,835.308228 722.684998,843.478394 727.843445,850.632507 
	C732.628906,857.269470 738.976135,860.601807 746.848938,860.927124 
	C754.834839,861.257080 762.846252,861.089600 770.844238,860.979248 
	C783.202087,860.808838 789.402893,853.786865 789.850952,843.490295 
	C790.695312,824.087341 790.671936,804.646423 790.993530,785.221008 
	C791.040283,782.396301 791.000000,779.570068 791.000000,776.373169 
	C796.212524,776.373169 801.275879,776.373169 806.737915,776.373169 
	C806.819336,777.665527 806.987305,779.099854 806.988403,780.534302 
	C807.005127,802.532959 807.728149,824.563843 806.758972,846.519714 
	C806.043030,862.737488 799.742004,871.899963 784.947449,876.476196 
	C782.174927,877.333740 779.163086,877.801941 776.262756,877.797546 
	C761.290039,877.774841 746.198425,879.476990 731.079712,875.057007 
M701.585693,826.909424 
	C706.341797,807.155884 702.867310,787.157349 704.166199,767.002625 
	C694.068909,767.002625 684.767395,766.773132 675.483582,767.079041 
	C668.708557,767.302307 662.855103,770.580688 658.396484,775.375793 
	C649.846191,784.571411 647.467285,796.475647 647.295227,808.342346 
	C647.162476,817.499023 649.501221,826.692993 654.389465,834.885254 
	C659.256714,843.042358 665.861511,848.678650 675.736267,848.942993 
	C687.800781,849.266174 697.907288,841.700012 701.585693,826.909424 
z"/>
<path fill="#048EC2" opacity="1.000000" stroke="none" 
	d="
M932.232910,805.421021 
	C926.533691,822.122009 925.602356,838.386108 933.155884,854.434082 
	C935.284790,858.957092 938.394653,861.240662 943.966736,861.141296 
	C964.098450,860.782166 984.240479,861.000000 1004.688599,861.000000 
	C1004.688599,866.679871 1004.688599,872.070923 1004.688599,877.807861 
	C1003.189819,877.873352 1001.741760,877.991638 1000.293701,877.992004 
	C959.134705,878.001892 917.975586,878.055054 876.816772,877.973267 
	C860.034180,877.939941 848.745789,869.409485 844.620667,853.140503 
	C844.302551,851.885620 844.026672,850.575806 844.025574,849.291321 
	C843.994324,811.631653 843.999634,773.972046 844.006226,736.312378 
	C844.006409,735.345886 844.085632,734.379395 844.136047,733.228455 
	C849.726562,733.228455 855.001404,733.228455 861.000000,733.228455 
	C861.000000,734.936157 861.000000,736.688232 861.000000,738.440308 
	C861.000000,772.100708 860.860474,805.762085 861.109253,839.420654 
	C861.163696,846.787598 862.607483,854.250671 869.991333,858.344360 
	C872.472900,859.720093 875.469421,860.816467 878.256592,860.879089 
	C890.383789,861.151733 902.520630,860.996277 914.266113,860.996277 
	C912.273926,853.814636 910.222839,846.893005 908.439697,839.902954 
	C903.394531,820.124939 913.508362,792.808228 930.722534,782.029907 
	C940.915161,775.647888 952.429993,773.962952 964.624695,775.665039 
	C972.389099,776.748718 979.534729,778.840637 986.219910,782.744690 
	C996.545227,788.774475 1002.750549,797.698853 1004.906372,810.031189 
	C999.570251,810.688721 994.243042,811.294250 988.932190,812.019104 
	C985.883057,812.435303 984.722717,811.084106 983.880676,808.209595 
	C981.921875,801.522827 979.086060,795.231812 972.204651,792.045471 
	C958.007812,785.471619 939.684143,788.072449 932.232910,805.421021 
z"/>
<path fill="#048EC2" opacity="1.000000" stroke="none" 
	d="
M246.978210,517.000000 
	C250.781815,517.000000 254.088806,517.000000 257.696259,517.000000 
	C257.696259,531.697632 257.696259,546.089294 257.696259,560.741272 
	C232.996643,560.741272 208.389572,560.741272 183.390900,560.741272 
	C183.390900,546.481873 183.390900,532.088318 183.390900,517.000000 
	C204.305359,517.000000 225.393478,517.000000 246.978210,517.000000 
z"/>
<path fill="#048EC2" opacity="1.000000" stroke="none" 
	d="
M573.000000,849.000000 
	C573.000000,858.804504 573.000000,868.108948 573.000000,877.704895 
	C567.619690,877.704895 562.561707,877.704895 557.249817,877.704895 
	C557.249817,829.646240 557.249817,781.706970 557.249817,733.383667 
	C562.189636,733.383667 567.253784,733.383667 573.000000,733.383667 
	C573.000000,771.656433 573.000000,810.078186 573.000000,849.000000 
z"/>
<path fill="#048EC2" opacity="1.000000" stroke="none" 
	d="
M313.998413,517.000000 
	C319.803314,517.000000 325.108521,517.000000 330.704163,517.000000 
	C330.704163,531.713379 330.704163,546.104492 330.704163,560.748535 
	C313.649780,560.748535 296.709503,560.748535 279.384094,560.748535 
	C279.384094,546.468323 279.384094,532.075317 279.384094,517.000000 
	C290.648560,517.000000 302.073639,517.000000 313.998413,517.000000 
z"/>
<path fill="#048EC2" opacity="1.000000" stroke="none" 
	d="
M694.000000,724.125000 
	C694.077271,722.200012 694.154541,720.760254 694.239441,719.178040 
	C699.805603,719.178040 705.053833,719.178040 710.651855,719.178040 
	C710.651855,725.567627 710.651855,731.931580 710.651855,738.650085 
	C705.431763,738.650085 700.062805,738.650085 694.000000,738.650085 
	C694.000000,734.061890 694.000000,729.336060 694.000000,724.125000 
z"/>
<path fill="#048EC2" opacity="1.000000" stroke="none" 
	d="
M680.726685,719.068481 
	C681.577393,725.589172 681.953491,732.057373 682.344116,738.776672 
	C676.288086,738.776672 671.036926,738.776672 665.391724,738.776672 
	C665.391724,732.522949 665.391724,726.155457 665.391724,719.016052 
	C670.148315,719.016052 675.200195,719.016052 680.726685,719.068481 
z"/>
<path fill="#048EC2" opacity="1.000000" stroke="none" 
	d="
M152.999893,907.841614 
	C153.370239,910.944031 152.607559,912.237915 149.589188,912.062439 
	C145.311081,911.813721 141.007721,911.999329 136.358185,911.999329 
	C136.358185,905.453491 136.358185,899.088562 136.358185,892.359192 
	C141.548386,892.359192 146.918686,892.359192 153.000000,892.359192 
	C153.000000,897.244019 153.000000,902.302185 152.999893,907.841614 
z"/>
<path fill="#048EC2" opacity="1.000000" stroke="none" 
	d="
M176.888092,912.000000 
	C172.790970,912.000000 169.178238,912.000000 165.286987,912.000000 
	C165.286987,905.302185 165.286987,898.941040 165.286987,892.288574 
	C170.700119,892.288574 176.065643,892.288574 181.717300,892.288574 
	C181.717300,898.706726 181.717300,905.066895 181.717300,911.760498 
	C180.240646,911.841858 178.806564,911.920959 176.888092,912.000000 
z"/>
<path fill="#048EC2" opacity="1.000000" stroke="none" 
	d="
M763.232788,911.991028 
	C762.170044,910.875122 761.118530,909.782043 761.080383,908.654663 
	C760.901184,903.366577 761.000732,898.069153 761.000732,892.387817 
	C766.486816,892.387817 771.859863,892.387817 777.619385,892.387817 
	C777.619385,898.500916 777.619385,904.867188 777.619385,911.998108 
	C773.155518,911.998108 768.433228,911.998108 763.232788,911.991028 
z"/>
<path fill="#048EC2" opacity="1.000000" stroke="none" 
	d="
M806.932007,910.723694 
	C801.524597,911.584167 796.169250,911.969543 790.392822,912.385254 
	C790.392822,905.525452 790.392822,899.157959 790.392822,892.393066 
	C795.475647,892.393066 800.849487,892.393066 806.984070,892.393066 
	C806.984070,898.161499 806.984070,904.205078 806.932007,910.723694 
z"/>
<path fill="#048EC2" opacity="1.000000" stroke="none" 
	d="
M70.001129,735.805542 
	C70.000221,730.059814 70.000221,724.796936 70.000221,719.271179 
	C75.402557,719.271179 80.435867,719.271179 85.736221,719.271179 
	C85.736221,725.745300 85.736221,732.105408 85.736221,738.993286 
	C81.217361,738.993286 76.792953,739.133301 72.392517,738.871094 
	C71.547394,738.820740 70.796432,737.190002 70.001129,735.805542 
z"/>
<path fill="#048EC2" opacity="1.000000" stroke="none" 
	d="
M48.035877,739.000000 
	C45.584690,739.000000 43.618881,739.000000 41.327461,739.000000 
	C41.327461,732.389709 41.327461,726.027649 41.327461,719.330505 
	C46.280590,719.330505 51.314747,719.330505 56.676758,719.330505 
	C56.676758,725.618225 56.676758,731.980286 56.676758,739.000000 
	C54.013954,739.000000 51.267605,739.000000 48.035877,739.000000 
z"/>
<path fill="#048EC2" opacity="1.000000" stroke="none" 
	d="
M238.000000,901.000122 
	C238.000000,897.553345 238.000000,894.594910 238.000000,891.321472 
	C243.298416,891.321472 248.330490,891.321472 253.685257,891.321472 
	C253.685257,897.635864 253.685257,903.997192 253.685257,910.681396 
	C248.694717,910.681396 243.661438,910.681396 238.000000,910.681396 
	C238.000000,907.655762 238.000000,904.572083 238.000000,901.000122 
z"/>
<path fill="#FFFFFF" opacity="1.000000" stroke="none" 
	d="
M591.092346,447.011475 
	C573.842529,443.342041 562.833679,432.638031 556.811523,417.178009 
	C548.632019,396.179688 549.611633,375.451508 562.022278,356.072296 
	C576.696533,333.158295 609.690979,330.879028 628.127380,349.487762 
	C638.835388,360.295868 643.777954,373.063690 645.169678,388.020508 
	C646.594666,403.334534 643.389709,417.145874 635.013489,429.850494 
	C625.802856,443.820770 605.751648,451.671600 591.092346,447.011475 
z"/>
<path fill="#FFFFFF" opacity="1.000000" stroke="none" 
	d="
M864.000488,401.698059 
	C864.122131,391.897583 863.904480,382.762634 867.501709,373.603394 
	C874.927612,354.695831 894.682373,346.797913 912.318848,351.143311 
	C929.445740,355.363159 938.595398,370.222656 941.111023,385.319885 
	C943.471313,399.485382 940.813599,412.487640 932.876831,424.070435 
	C917.545105,446.445312 886.206726,444.886292 872.481323,424.211639 
	C867.937805,417.367859 865.180725,410.148682 864.000488,401.698059 
z"/>
<path fill="#FFFFFF" opacity="1.000000" stroke="none" 
	d="
M358.782776,805.715942 
	C367.080170,799.263916 375.610352,794.150208 385.660309,791.666382 
	C399.877869,788.152466 414.645172,794.483337 422.123962,807.414856 
	C427.443817,816.613403 429.990692,826.442932 431.166931,836.954651 
	C432.069366,845.019714 432.485168,852.870422 430.717651,860.709412 
	C394.629730,860.709412 358.914856,860.709412 322.657288,860.709412 
	C329.397644,838.648926 341.618469,820.789001 358.782776,805.715942 
z"/>
<path fill="#FFFFFF" opacity="1.000000" stroke="none" 
	d="
M76.970016,827.712402 
	C73.626961,833.419067 71.422058,840.163025 66.777061,843.725342 
	C53.915852,853.588745 38.111156,849.749268 30.182468,835.294434 
	C19.801922,816.369629 20.012123,797.085815 31.322075,778.622742 
	C35.421627,771.930359 42.258072,767.520508 50.438541,767.114563 
	C60.052059,766.637451 69.707382,767.002808 79.996117,767.002808 
	C79.462158,787.307190 81.783302,807.441528 76.970016,827.712402 
z"/>
<path fill="#FFFFFF" opacity="1.000000" stroke="none" 
	d="
M701.340576,827.244141 
	C697.907288,841.700012 687.800781,849.266174 675.736267,848.942993 
	C665.861511,848.678650 659.256714,843.042358 654.389465,834.885254 
	C649.501221,826.692993 647.162476,817.499023 647.295227,808.342346 
	C647.467285,796.475647 649.846191,784.571411 658.396484,775.375793 
	C662.855103,770.580688 668.708557,767.302307 675.483582,767.079041 
	C684.767395,766.773132 694.068909,767.002625 704.166199,767.002625 
	C702.867310,787.157349 706.341797,807.155884 701.340576,827.244141 
z"/>
</svg>