<?xml version="1.0" encoding="UTF-8" standalone="no"?>
<svg
   version="1.1"
   id="Layer_1"
   x="0px"
   y="0px"
   width="2933929.2"
   viewBox="0 0 2933929.2 878300.19"
   enable-background="new 0 0 2564 913"
   xml:space="preserve"
   sodipodi:docname="logo.svg"
   inkscape:export-filename="logo1.svg"
   inkscape:export-xdpi="96"
   inkscape:export-ydpi="96"
   inkscape:version="1.3.2 (091e20e, 2023-11-25, custom)"
   height="878300.19"
   xmlns:inkscape="http://www.inkscape.org/namespaces/inkscape"
   xmlns:sodipodi="http://sodipodi.sourceforge.net/DTD/sodipodi-0.dtd"
   xmlns="http://www.w3.org/2000/svg"
   xmlns:svg="http://www.w3.org/2000/svg"><defs
   id="defs27" /><sodipodi:namedview
   id="namedview27"
   pagecolor="#ffffff"
   bordercolor="#000000"
   borderopacity="0.25"
   inkscape:showpageshadow="2"
   inkscape:pageopacity="0.0"
   inkscape:pagecheckerboard="0"
   inkscape:deskcolor="#d1d1d1"
   inkscape:export-bgcolor="#ffffff00"
   inkscape:zoom="0.73478939"
   inkscape:cx="1887.6157"
   inkscape:cy="460.67622"
   inkscape:window-width="1920"
   inkscape:window-height="1051"
   inkscape:window-x="-9"
   inkscape:window-y="-9"
   inkscape:window-maximized="1"
   inkscape:current-layer="Layer_1" />

<path
   fill="#ffffff"
   opacity="1"
   stroke="none"
   d="m -3640165.7,44255.18 c 0,158.937 0,317.874 0,477 -197.4,0 -394.8,0 -592.6,-0.414 0,-0.795 0.5,-1.448 1,-1.515 17.1,-2.305 33,-8.37 47.6,-17.599 19.5,-12.345 35.4,-29.081 51.6,-45.044 31.9,-31.186 62.6,-63.442 93.7,-95.358 14.3,-14.687 18.4,-32.4 14.1,-52.108 -3.2,-14.744 -11,-26.814 -23,-35.89 -13.5,-10.228 -28.3,-13.72 -45,-8.362 -13.9,4.434 -25.1,12.744 -35.1,22.592 -35.2,34.488 -69.8,69.562 -105.3,103.809 -11.6,11.283 -26.4,16.587 -43.2,14.994 -13.7,-1.293 -25.1,-6.805 -34.6,-16.414 -4.2,-4.221 -7.9,-8.881 -12.2,-13.059 -15.5,-15.31 -31.2,-30.418 -46.6,-45.766 -9.7,-9.655 -19,-19.658 -27.8,-30.24 -12,-14.385 -25.9,-27.171 -39.1,-40.57 -22,-22.435 -44.1,-44.852 -66.2,-67.206 -37.4,-37.756 -74.8,-75.456 -112.2,-113.179 -0.4,-0.474 -1,-0.909 -1.4,-1.419 -6.3,-7.555 -12.8,-14.937 -18.8,-22.723 -10,-13.032 -16.4,-28.019 -22.3,-43.256 -7.1,-18.698 -11.2,-38.147 -12.5,-58.03 -0.7,-11.863 0.3,-23.859 0.9,-35.774 0.9,-16.69 4.2,-33.076 9.9,-48.689 5,-13.99 10.9,-27.909 18.4,-40.76 7.2,-12.49 16.2,-24.171 25.6,-35.108 8,-9.195 17.5,-17.164 26.8,-25.044 15.7,-13.228 33.5,-23.084 52.6,-30.59 19.2,-7.574 39.3,-11.724 59.8,-13.097 10.2,-0.681 20.6,0.646 30.8,0.773 16.7,0.207 32.8,3.539 48.7,8.023 23.6,6.631 44.4,18.418 63.4,33.551 11.8,9.344 23.3,19.208 35.8,27.454 13.2,8.735 28,11.281 43.9,6.266 12.3,-3.885 21.3,-12.299 31.2,-19.684 20.4,-15.332 40.6,-31.071 64.4,-41.262 13.4,-5.752 27.2,-9.745 42,-10.318 6.4,-0.251 12.8,-0.915 19.2,-0.971 13.9,-0.119 27.8,-0.446 41.6,0.232 10.4,0.51 20.9,1.976 31.1,3.9 8.8,1.631 17.9,3.132 25.7,7.133 20.7,10.75 40.4,23.158 57.9,38.887 11.1,9.958 21.4,20.481 30.4,32.398 8,10.717 15.3,22.04 26.2,30.486 14.3,11.121 29.8,14.827 47.3,10.034 13.1,-3.579 22.9,-12.008 31.4,-21.924 11.9,-13.77 16.8,-29.467 12.1,-47.726 -2.7,-10.38 -7.9,-19.282 -14.3,-27.478 -11.9,-15.042 -23.6,-30.297 -36.3,-44.563 -15.6,-17.363 -33.2,-32.583 -52.1,-46.309 -18.6,-13.565 -38.4,-25.182 -60.1,-33.003 -20.5,-7.377 -41.6,-12.88 -63.2,-16.075 -15,-2.225 -30.1,-5.106 -45.2,-5.744 -21.6,-0.913 -43.4,-1.431 -64.8,2.796 -16.9,3.329 -34,6.323 -50.5,11.133 -26.9,7.871 -52.2,19.923 -75.7,35.332 -10.1,6.595 -19.6,7.153 -29.8,-0.301 -8.3,-6.108 -17.5,-11.222 -26.6,-16.208 -17,-9.312 -35.1,-16.306 -53.7,-21.5 -18.4,-5.113 -37.1,-9.065 -56.2,-10.557 -4.9,-0.386 -9.8,-1.29 -14.7,-1.956 265.2,0 530.4,0 796,0 0,136.692 0,273.385 -0.4,410.415 -3.5,-7.088 -5.9,-14.936 -10,-21.853 -8.8,-15.135 -22.8,-23.231 -40,-23.394 -50.2,-0.475 -100.3,-0.08 -150.5,-0.233 -11.1,-0.03 -21.1,3.143 -29.9,9.523 -6.2,4.603 -11.6,10.509 -17.2,16.028 -12.3,12.182 -24.6,24.429 -36.8,36.763 -7.4,7.555 -14.7,15.305 -22,23.002 -2.5,2.645 -5,3.46 -7.9,0.586 -2.5,-2.524 -5.1,-4.998 -7.6,-7.582 -5.5,-5.761 -11.1,-11.411 -16.3,-17.407 -9.1,-10.536 -18,-21.371 -27.1,-31.938 -6.1,-7.12 -12.8,-13.84 -18.9,-21.012 -9.5,-11.258 -18.6,-22.939 -28.3,-34.079 -8.4,-9.733 -17.5,-18.926 -26.2,-28.435 -5.9,-6.442 -11.6,-13.085 -17.6,-19.514 -9.1,-9.908 -17.5,-20.662 -27.7,-29.321 -13.5,-11.383 -29.6,-12.667 -46,-6.687 -13.9,5.075 -25.4,14.109 -36,24.157 -8.5,8.101 -16.4,16.961 -24.6,25.395 -16.2,16.664 -32.5,33.378 -48.9,49.855 -10.4,10.415 -23.1,15.758 -37.9,15.739 -22.7,-0.03 -45.4,-0.48 -68,0.243 -8.1,0.259 -16.6,2.351 -24.1,5.454 -13.7,5.634 -22.1,17.2 -28.5,30.098 -6.1,12.531 -7.7,25.565 -2.6,38.901 4,10.519 10.6,19.23 18.9,26.885 12.9,11.814 28,17.209 45.2,17.36 23.1,0.204 46.3,0.05 69.4,0.05 1.4,0 2.7,0.04 4,0.04 10.7,-0 21.5,0.702 32.1,-0.181 18.7,-1.554 34.2,-10.491 47.4,-23.443 7.8,-7.672 15.1,-15.781 22.7,-23.679 8.5,-8.859 17.1,-17.693 25.6,-26.57 0.7,-0.812 1.1,-2.005 1.9,-2.774 11.6,-11.072 16.1,-16.028 28,-7.313 1.2,0.875 2.3,1.944 3.3,3.025 11.7,12.265 23.3,24.495 34.9,36.854 5.1,5.541 10.1,11.307 15,17.047 10,11.582 19.9,23.252 29.9,34.817 7.3,8.472 14.8,16.794 22.2,25.256 10.3,11.926 20.6,23.916 30.9,35.887 6,6.981 12,13.97 18,20.967 8.3,9.67 18.2,16.76 31.2,18.005 18.8,1.804 34.7,-4.491 48,-18.023 22.6,-23.066 45.3,-45.998 67.9,-68.988 0.7,-0.711 1.5,-1.379 2.1,-2.167 9,-11.722 20,-21.19 33.8,-26.243 7.7,-2.803 16.3,-4.097 24.5,-4.269 12.2,-0.255 24.4,1.457 36.6,1.645 11.3,0.173 22.5,-0.311 33.8,-0.959 12.3,-0.71 24.6,-1.639 36.9,-3.052 7.7,-0.896 15,-4.111 20.2,-10.041 6.7,-7.628 11.9,-16.309 14.6,-26.294 0.3,-0.954 1.3,-1.702 2,-2.546 z"
   id="path2" />
<path
   fill="#048ec2"
   opacity="1"
   stroke="none"
   d="m -3640962.2,43770.186 c 5.4,0.702 10.3,1.654 15.2,2.062 19.1,1.572 37.8,5.736 56.2,11.123 18.6,5.473 36.7,12.842 53.7,22.654 9.1,5.253 18.3,10.642 26.6,17.077 10.2,7.854 19.7,7.266 29.8,0.318 23.5,-16.237 48.8,-28.935 75.7,-37.228 16.5,-5.068 33.6,-8.223 50.5,-11.731 21.4,-4.453 43.2,-3.908 64.8,-2.946 15.1,0.672 30.2,3.708 45.2,6.052 21.6,3.367 42.7,9.165 63.2,16.938 21.7,8.24 41.5,20.481 60.1,34.774 18.9,14.462 36.5,30.5 52.1,48.794 12.7,15.031 24.4,31.105 36.3,46.955 6.4,8.636 11.6,18.015 14.3,28.952 4.7,19.239 -0.2,35.778 -12.1,50.287 -8.5,10.448 -18.3,19.329 -31.4,23.101 -17.5,5.05 -33,1.145 -47.3,-10.573 -10.9,-8.899 -18.2,-20.83 -26.2,-32.122 -9,-12.556 -19.3,-23.644 -30.4,-34.137 -17.5,-16.573 -37.2,-29.646 -57.9,-40.973 -7.8,-4.216 -16.9,-5.797 -25.7,-7.516 -10.2,-2.027 -20.7,-3.571 -31.1,-4.11 -13.8,-0.714 -27.7,-0.37 -41.6,-0.243 -6.4,0.06 -12.8,0.757 -19.2,1.022 -14.8,0.605 -28.6,4.811 -42,10.873 -23.8,10.737 -44,27.32 -64.4,43.475 -9.9,7.782 -18.9,16.647 -31.2,20.74 -15.9,5.285 -30.7,2.602 -43.9,-6.602 -12.5,-8.688 -24,-19.082 -35.8,-28.927 -19,-15.945 -39.8,-28.365 -63.4,-35.351 -15.9,-4.725 -32,-8.236 -48.7,-8.454 -10.2,-0.134 -20.6,-1.532 -30.8,-0.814 -20.5,1.446 -40.6,5.819 -59.8,13.799 -19.1,7.909 -36.9,18.294 -52.6,32.232 -9.3,8.303 -18.8,16.699 -26.8,26.388 -9.4,11.523 -18.4,23.832 -25.6,36.991 -7.5,13.542 -13.4,28.207 -18.4,42.948 -5.7,16.451 -9,33.716 -9.9,51.302 -0.6,12.554 -1.6,25.194 -0.9,37.694 1.3,20.95 5.4,41.442 12.5,61.143 5.9,16.055 12.3,31.846 22.3,45.577 6,8.204 12.5,15.983 18.8,23.943 0.4,0.537 1,0.996 1.4,1.495 37.4,39.748 74.8,79.471 112.2,119.252 22.1,23.554 44.2,47.174 66.2,70.814 13.2,14.118 27.1,27.59 39.1,42.746 8.8,11.15 18.1,21.69 27.8,31.863 15.4,16.171 31.1,32.09 46.6,48.221 4.3,4.404 8,9.313 12.2,13.761 9.5,10.124 20.9,15.932 34.6,17.295 16.8,1.678 31.6,-3.911 43.2,-15.799 35.5,-36.085 70.1,-73.041 105.3,-109.38 10,-10.376 21.2,-19.132 35.1,-23.804 16.7,-5.646 31.5,-1.967 45,8.81 12,9.564 19.8,22.281 23,37.816 4.3,20.766 0.2,39.43 -14.1,54.905 -31.1,33.629 -61.8,67.616 -93.7,100.475 -16.2,16.819 -32.1,34.454 -51.6,47.461 -14.6,9.725 -30.5,16.115 -47.6,18.544 -0.5,0.07 -1,0.759 -1.4,1.595 -25.1,0.437 -50.1,0.437 -75.6,0.437 -2.4,-1.053 -4.2,-2.535 -6.2,-3.092 -23.3,-6.345 -44.6,-16.694 -62.1,-34.298 -29.3,-29.556 -58.2,-59.5 -87,-89.559 -18.5,-19.227 -36.4,-38.943 -54.6,-58.461 -15.1,-16.259 -30.3,-32.535 -45.3,-48.831 -11.7,-12.526 -23.2,-25.091 -34.8,-37.646 -11.1,-12.052 -22.2,-24.108 -33.3,-36.171 -10.2,-11.054 -20.3,-22.125 -30.5,-33.179 -11.2,-12.187 -22.7,-24.11 -33.6,-36.603 -17.1,-19.56 -32.4,-40.508 -45.1,-63.599 -11.8,-21.599 -21.7,-44.13 -28,-68.137 -4.5,-17.122 -7.8,-34.632 -10.9,-52.113 -4.3,-24.579 -5,-49.54 -3.8,-74.402 0.8,-17.342 2.9,-34.732 5.9,-51.81 3,-16.76 7,-33.442 12,-49.646 10.3,-33.193 25.9,-63.672 46.8,-90.805 11.9,-15.51 24.5,-30.608 38.2,-44.395 19.6,-19.779 41.3,-37.034 65.1,-51.091 24,-14.159 49.6,-23.956 76.3,-30.406 11.1,-2.681 22.5,-3.886 33.8,-5.605 4.4,-0.668 8.8,-0.902 13.5,-1.739 18.5,-0.406 36.9,-0.406 55.7,-0.406 z"
   id="path3"
   inkscape:export-filename="path5.svg"
   inkscape:export-xdpi="96"
   inkscape:export-ydpi="96"
   style="stroke-width:1.02648" />
<path
   fill="#5f49b5"
   opacity="1"
   stroke="none"
   d="m -3640165.7,44229.089 c -0.7,1.383 -1.7,2.171 -2,3.177 -2.7,10.521 -7.9,19.667 -14.6,27.705 -5.2,6.248 -12.5,9.635 -20.2,10.58 -12.3,1.488 -24.6,2.468 -36.9,3.215 -11.3,0.683 -22.5,1.193 -33.8,1.011 -12.2,-0.198 -24.4,-2.002 -36.6,-1.733 -8.2,0.181 -16.8,1.544 -24.5,4.497 -13.8,5.325 -24.8,15.301 -33.8,27.652 -0.6,0.83 -1.4,1.534 -2.1,2.283 -22.6,24.224 -45.3,48.386 -67.9,72.691 -13.3,14.257 -26.2,33.657 -44.7,31.5 -7,-0.827 -26.2,-21.293 -34.5,-31.482 -6,-7.372 -12,-14.737 -18,-22.092 -10.3,-12.613 -20.6,-25.246 -30.9,-37.813 -7.4,-8.916 -14.9,-17.685 -22.2,-26.611 -10,-12.186 -19.9,-24.482 -29.9,-36.685 -4.9,-6.049 -9.9,-12.124 -15,-17.962 -11.6,-13.022 -23.2,-25.909 -34.9,-38.832 -1,-1.139 -2.1,-2.265 -3.3,-3.187 -11.9,-9.182 -16.4,-3.961 -28,7.706 -0.8,0.81 -1.2,2.067 -1.9,2.923 -8.5,9.353 -17.1,18.66 -25.6,27.995 -7.6,8.322 -14.9,16.866 -22.7,24.95 -13.2,13.646 -28.7,23.063 -47.4,24.7 -10.6,0.931 -21.4,0.187 -32.1,0.192 -1.3,0 -2.6,-0.04 -4,-0.04 -23.1,-0 -46.3,0.16 -69.4,-0.06 -17.2,-0.159 -32.3,-5.843 -45.2,-18.291 -8.3,-8.066 -14.9,-17.244 -18.9,-28.327 -5.1,-14.052 -3.5,-27.786 2.6,-40.989 6.4,-13.591 14.8,-25.777 28.5,-31.714 7.5,-3.269 16,-5.473 24.1,-5.746 22.6,-0.762 45.3,-0.288 68,-0.257 14.8,0.02 27.5,-5.609 37.9,-16.583 16.4,-17.361 32.7,-34.971 48.9,-52.53 8.2,-8.887 16.1,-18.222 24.6,-26.758 10.6,-10.587 22.1,-20.106 36,-25.453 16.4,-6.302 32.5,-4.949 46,7.045 10.2,9.125 18.6,20.455 27.7,30.895 6,6.774 11.7,13.774 17.6,20.562 8.7,10.018 17.8,19.705 26.2,29.96 9.7,11.738 18.8,24.046 28.3,35.908 6.1,7.556 12.8,14.638 18.9,22.139 9.1,11.134 18,22.551 27.1,33.653 5.2,6.317 10.8,12.271 16.3,18.341 2.5,2.723 5.1,5.329 7.6,7.988 2.9,3.029 5.4,2.17 7.9,-0.617 7.3,-8.11 14.6,-16.276 22,-24.237 12.2,-12.996 24.5,-25.9 36.8,-38.735 5.6,-5.815 11,-12.038 17.2,-16.888 8.8,-6.723 18.8,-10.068 29.9,-10.034 50.2,0.155 100.3,-0.255 150.5,0.245 17.2,0.172 31.2,8.703 40,24.649 4.1,7.288 6.5,15.558 10,23.512 0.4,8.582 0.4,17.033 0.4,25.978 z"
   id="path4"
   style="stroke-width:1.02648"
   sodipodi:nodetypes="ccssssssscsssssssssssssssscssssssssssssssssssssssssssscc" />























</svg>
