<?xml version="1.0" encoding="UTF-8" standalone="no"?>
<!-- Created with Inkscape (http://www.inkscape.org/) -->

<svg
   width="201.44894mm"
   height="177.27107mm"
   viewBox="0 0 201.44894 177.27107"
   version="1.1"
   id="svg1"
   xmlns="http://www.w3.org/2000/svg"
   xmlns:svg="http://www.w3.org/2000/svg">
  <defs
     id="defs1" />
  <g
     id="layer1"
     transform="translate(-7.9866836,-62.199721)">
    <path
       fill="#048ec2"
       opacity="1"
       stroke="none"
       d="m 69.218185,62.199801 c 0.950364,0.12936 1.814976,0.30481 2.686701,0.37992 3.361496,0.28966 6.643488,1.05695 9.879039,2.04976 3.286516,1.00845 6.463108,2.36643 9.460343,4.17449 1.604774,0.96806 3.215936,1.96105 4.689099,3.14699 1.797773,1.44724 3.459285,1.33889 5.233983,0.0585 4.14719,-2.99201 8.59441,-5.33199 13.34247,-6.86023 2.9016,-0.93395 5.90097,-1.51528 8.87309,-2.16173 3.77284,-0.8206 7.60903,-0.72009 11.41507,-0.54289 2.66303,0.12398 5.31305,0.68338 7.95986,1.11537 3.80103,0.62037 7.51053,1.68879 11.12085,3.12122 3.82715,1.51842 7.30758,3.77407 10.59135,6.40785 3.3228,2.66512 6.42793,5.62038 9.1619,8.99152 2.24639,2.76994 4.30112,5.73189 6.3905,8.65257 1.13843,1.59141 2.05142,3.31975 2.52184,5.33511 0.82755,3.5453 -0.0436,6.593039 -2.12375,9.266779 -1.49793,1.92529 -3.23009,3.56178 -5.53361,4.25681 -3.08419,0.93061 -5.81924,0.21098 -8.33632,-1.94824 -1.91161,-1.63987 -3.18821,-3.8385 -4.60593,-5.91931 -1.57645,-2.313809 -3.39377,-4.356979 -5.34736,-6.290499 -3.08575,-3.05403 -6.55924,-5.46318 -10.20461,-7.55039 -1.35689,-0.77692 -2.97507,-1.06827 -4.50747,-1.38496 -1.80769,-0.37359 -3.646,-0.65816 -5.48101,-0.75735 -2.43457,-0.13159 -4.87898,-0.0681 -7.31877,-0.0449 -1.13245,0.0108 -2.26352,0.13967 -3.39624,0.18841 -2.58834,0.11141 -5.02883,0.88652 -7.38864,2.00353 -4.18031,1.97869 -7.73795,5.03455 -11.34126,8.01138 -1.73586,1.43407 -3.32685,3.06769 -5.49303,3.82192 -2.796884,0.973799 -5.389118,0.479469 -7.723403,-1.21657 -2.203585,-1.60106 -4.222094,-3.5163 -6.295247,-5.33055 -3.357641,-2.93834 -7.017927,-5.22694 -11.166115,-6.5143 -2.805445,-0.87066 -5.638654,-1.51769 -8.570009,-1.55783 -1.807425,-0.0247 -3.623863,-0.28229 -5.418963,-0.15002 -3.615817,0.26643 -7.148643,1.07236 -10.540473,2.54288 -3.361655,1.45742 -6.48897,3.371 -9.250808,5.93952 -1.64516,1.52999 -3.315548,3.07718 -4.717108,4.86256 -1.666973,2.123499 -3.244371,4.391649 -4.516659,6.816609 -1.309188,2.49529 -2.346591,5.19779 -3.242399,7.91412 -0.999729,3.03151 -1.580215,6.21305 -1.734258,9.45367 -0.10996,2.31336 -0.280657,4.6426 -0.15112,6.94606 0.217121,3.86048 0.94107,7.63675 2.200136,11.26715 1.026084,2.95855 2.152269,5.86842 3.918919,8.39873 1.055502,1.51176 2.203359,2.94509 3.311534,4.41202 0.0748,0.099 0.165293,0.1836 0.247895,0.27552 6.582593,7.32442 13.16927,14.64441 19.746107,21.97513 3.894009,4.34036 7.77682,8.69298 11.656341,13.04911 2.316979,2.60159 4.766349,5.08417 6.876823,7.87705 1.552716,2.05474 3.186856,3.9969 4.898315,5.87148 2.720766,2.98003 5.483414,5.91354 8.211008,8.88607 0.744548,0.81139 1.405066,1.71606 2.142675,2.53571 1.678892,1.86569 3.683774,2.93596 6.091297,3.187 2.966862,0.30934 5.557402,-0.72065 7.612442,-2.91138 6.23766,-6.64954 12.33437,-13.45956 18.53149,-20.15587 1.76952,-1.91214 3.73645,-3.52553 6.17796,-4.38656 2.95007,-1.04037 5.54877,-0.36235 7.92499,1.62361 2.10864,1.76228 3.48605,4.10573 4.04732,6.96846 0.75027,3.82665 0.0443,7.26596 -2.47503,10.11754 -5.47507,6.19699 -10.89263,12.45988 -16.4945,18.51495 -2.86745,3.09945 -5.66056,6.34909 -9.09761,8.74587 -2.56995,1.7921 -5.35499,2.96958 -8.38141,3.41722 -0.0876,0.013 -0.16135,0.13984 -0.24467,0.29401 -4.40804,0.0804 -8.812961,0.0804 -13.300356,0.0804 -0.420161,-0.19391 -0.739199,-0.46702 -1.098285,-0.56968 -4.090494,-1.16917 -7.853259,-3.07625 -10.924573,-6.32034 -5.156315,-5.44636 -10.251224,-10.96429 -15.325923,-16.5034 -3.246008,-3.54307 -6.411226,-7.1762 -9.60898,-10.77291 -2.663709,-2.99613 -5.324512,-5.99541 -7.981953,-8.99829 -2.042784,-2.3083 -4.078966,-4.62364 -6.11682,-6.93727 -1.956098,-2.22077 -3.911298,-4.44249 -5.865459,-6.66532 -1.790822,-2.03703 -3.578757,-4.07713 -5.369738,-6.11399 -1.974723,-2.24589 -3.997632,-4.44284 -5.916671,-6.74513 -3.00445,-3.60442 -5.706679,-7.46447 -7.936408,-11.71971 -2.085564,-3.98006 -3.823167,-8.13196 -4.929864,-12.55577 -0.7893864,-3.15527 -1.3683224,-6.38179 -1.9109064,-9.6032 -0.762819,-4.52924 -0.886124,-9.12902 -0.680692,-13.71035 0.143321,-3.19565 0.514872,-6.40022 1.045378,-9.54732 0.520611,-3.08836 1.2226954,-6.16257 2.1075704,-9.14839 1.812723,-6.116699 4.563293,-11.733289 8.237224,-16.733089 2.100229,-2.85823 4.324361,-5.64036 6.732058,-8.18084 3.454415,-3.64492 7.262406,-6.82456 11.461384,-9.41481 4.229664,-2.60917 8.727275,-4.41461 13.427341,-5.60315 1.953669,-0.49403 3.964974,-0.71613 5.95387,-1.0329 0.772695,-0.12307 1.55585,-0.16615 2.368122,-0.32042 3.26511,-0.0748 6.496364,-0.0748 9.810116,-0.0748 z"
       id="path3"
       style="stroke-width:0.184884" />
    <path
       fill="#5f49b5"
       opacity="1"
       stroke="none"
       d="m 209.43563,146.76398 c -0.11733,0.25484 -0.2969,0.40013 -0.34238,0.58543 -0.47584,1.93868 -1.39289,3.62413 -2.57408,5.10527 -0.91827,1.15142 -2.19438,1.77556 -3.5621,1.94962 -2.1557,0.27435 -4.32352,0.45479 -6.49052,0.59258 -1.97996,0.12589 -3.96678,0.2198 -5.94857,0.18618 -2.14853,-0.0365 -4.29722,-0.36883 -6.44109,-0.31929 -1.44557,0.0334 -2.95571,0.28454 -4.30778,0.82874 -2.43784,0.98118 -4.37647,2.81953 -5.95842,5.09552 -0.10629,0.15292 -0.24034,0.28269 -0.3637,0.42076 -3.98849,4.46379 -7.98748,8.91624 -11.96218,13.39494 -2.33161,2.62735 -4.60631,6.20227 -7.85829,5.80469 -1.24634,-0.15237 -4.62326,-3.92369 -6.08021,-5.80121 -1.05423,-1.35851 -2.10992,-2.71568 -3.16741,-4.07109 -1.81345,-2.32426 -3.62298,-4.65223 -5.44536,-6.96793 -1.29295,-1.643 -2.61431,-3.25884 -3.90515,-4.90384 -1.76195,-2.24547 -3.50258,-4.51133 -5.26113,-6.76008 -0.87161,-1.11456 -1.73986,-2.23409 -2.64992,-3.3099 -2.02999,-2.39965 -4.0843,-4.77428 -6.13198,-7.15567 -0.18052,-0.20992 -0.37002,-0.41749 -0.58102,-0.58738 -2.10162,-1.69207 -2.88729,-0.72989 -4.93037,1.41994 -0.14193,0.14936 -0.21096,0.38095 -0.3477,0.53866 -1.49453,1.72359 -2.99715,3.43865 -4.49495,5.15882 -1.33528,1.53356 -2.63392,3.10804 -4.0082,4.59769 -2.31993,2.51468 -5.04417,4.24999 -8.33417,4.55165 -1.87022,0.17149 -3.76371,0.0343 -5.646748,0.0353 -0.234607,1.1e-4 -0.469208,-0.007 -0.703828,-0.007 -4.07754,-5.6e-4 -8.155325,0.0295 -12.232532,-0.0106 -3.015841,-0.0294 -5.685359,-1.07684 -7.948292,-3.37061 -1.466435,-1.48641 -2.617496,-3.17766 -3.328751,-5.22006 -0.901758,-2.58936 -0.622966,-5.12011 0.466741,-7.55318 1.121643,-2.50441 2.590384,-4.75007 5.001903,-5.84404 1.327883,-0.60239 2.816766,-1.00858 4.24593,-1.05891 3.985484,-0.14033 7.977658,-0.053 11.967191,-0.0472 2.613939,0.003 4.850533,-1.0337 6.680301,-3.05583 2.894908,-3.19923 5.748175,-6.44441 8.609895,-9.67998 1.4485,-1.63769 2.82457,-3.35784 4.32791,-4.93084 1.86449,-1.95092 3.89058,-3.70509 6.34068,-4.69033 2.88778,-1.16126 5.72868,-0.91193 8.09026,1.29822 1.79659,1.68142 3.28227,3.76934 4.88982,5.69311 1.04323,1.24836 2.04562,2.53822 3.08653,3.789 1.53635,1.84614 3.13539,3.63118 4.62563,5.52103 1.70551,2.16288 3.30087,4.4309 4.98301,6.61682 1.07155,1.39246 2.2362,2.69739 3.31905,4.07969 1.60735,2.05175 3.16021,4.15553 4.77361,6.20134 0.91802,1.16408 1.9062,2.26124 2.87116,3.37978 0.43282,0.50173 0.88609,0.98205 1.33009,1.47208 0.50558,0.55803 0.95429,0.39986 1.39668,-0.1137 1.28735,-1.49447 2.56561,-2.99926 3.87832,-4.46629 2.14298,-2.39481 4.30166,-4.77266 6.4714,-7.13791 0.98305,-1.07163 1.9273,-2.21829 3.03441,-3.11206 1.53448,-1.23881 3.30232,-1.85532 5.25669,-1.84899 8.8297,0.0286 17.66006,-0.0469 26.48901,0.0451 3.04003,0.0317 5.50001,1.60368 7.05227,4.54226 0.70939,1.34298 1.13723,2.86686 1.75554,4.33264 0.0628,1.58132 0.0628,3.13868 0.0628,4.78705 z"
       id="path4"
       style="stroke-width:0.184884" />
  </g>
</svg>
